<svg fill="none" xmlns="http://www.w3.org/2000/svg" viewBox="0 0 90 60"><path d="M82 43H8" stroke="#E9EFFF" stroke-width="2" stroke-linecap="round" stroke-linejoin="round"/><path d="M31 25l-13 2s7.172-.1 11 2c3.39 1.859 5 5 5 5l5 1c7.5 0 11-5 11-5l11-2 14-3H61l-12 1-11 2 1.6 4h-2L31 25z" fill="#ADC6FE"/><path d="M44 21l-3.647 2.431A3.45 3.45 0 0136 23l6.298-3.936A7 7 0 0146.008 18H57a3 3 0 01-3 3H44z" fill="#E9EFFF"/><path d="M51 18h-7l-12.5 7M51 18v4m0-4h7m-26.5 7l-12.645.937a10 10 0 00-1.687.27L10 28l5 1-1 2-6 1 2 1v4l-2 1 2 1h5v-1s0-8 8-8 8 8 8 8v1h30v-1s0-8 8-8 8 8 8 8v1l3.058-1.835A4 4 0 0082 33.735v-2.41c0-.215-.035-.429-.103-.633L81 28h-5l-5-3m-39.5 0l7.5 9 1-1-2-5 11-2 12-1h10m-13-7l10 4-5.68-.811a4 4 0 01-2.263-1.132L58 18zm13 7h7" stroke="#3955FE" stroke-width="2" stroke-linecap="round" stroke-linejoin="round"/><rect x="-1" y="1" width="10" height="10" rx="5" transform="matrix(-1 0 0 1 73 32)" stroke="#262425" stroke-width="2"/><mask id="a" fill="#fff"><path d="M71 38h-4a2 2 0 104 0z"/></mask><path d="M71 38v-2h2v2h-2zm-4 0h-2v-2h2v2zm2 0h4a4 4 0 01-4 4v-4zm0 0v4a4 4 0 01-4-4h4zm2 2h-4v-4h4v4z" fill="#ADC6FE" mask="url(#a)"/><mask id="b" fill="#fff"><path d="M25 38h-4a2 2 0 104 0z"/></mask><path d="M25 38v-2h2v2h-2zm-4 0h-2v-2h2v2zm2 0h4a4 4 0 01-4 4v-4zm0 0v4a4 4 0 01-4-4h4zm2 2h-4v-4h4v4z" fill="#ADC6FE" mask="url(#b)"/><rect x="-1" y="1" width="10" height="10" rx="5" transform="matrix(-1 0 0 1 27 32)" stroke="#262425" stroke-width="2"/></svg>