<svg viewBox="0 0 48 48" fill="none" xmlns="http://www.w3.org/2000/svg"><path fill-rule="evenodd" clip-rule="evenodd" d="M14.528 4c1.654 0 3.29.336 4.815.988a12.51 12.51 0 014.065 2.803l.592.61.593-.61C26.937 5.372 30.13 4 33.473 4c3.343 0 6.536 1.371 8.88 3.79C44.695 10.207 46 13.472 46 16.864c0 3.391-1.305 6.656-3.647 9.073l-2.029 2.093-14.887 15.362a2 2 0 01-2.873-2.784l14.888-15.362 2.028-2.093c1.607-1.658 2.52-3.919 2.52-6.29 0-2.37-.913-4.63-2.52-6.288C37.876 8.918 35.714 8 33.473 8c-2.241 0-4.403.918-6.008 2.574l-2.028 2.093a2 2 0 01-2.873 0l-2.028-2.093a8.51 8.51 0 00-2.765-1.909A8.244 8.244 0 0014.528 8a8.25 8.25 0 00-3.242.666 8.51 8.51 0 00-2.765 1.908 8.889 8.889 0 00-1.863 2.878 9.161 9.161 0 00-.49 5.166 2 2 0 01-3.926.764 13.193 13.193 0 01.704-7.42A12.89 12.89 0 015.648 7.79a12.51 12.51 0 014.065-2.802A12.243 12.243 0 0114.528 4zm-5.79 20c.89 0 1.77.179 2.59.525A6.717 6.717 0 0113 25.541 6.682 6.682 0 0117.263 24a6.69 6.69 0 014.777 2.013A6.875 6.875 0 0124 30.828c0 1.8-.7 3.532-1.96 4.815l-.913.93-6.7 6.828a2 2 0 01-2.854 0l-6.7-6.828-.912-.93a6.834 6.834 0 01-1.453-2.214 6.907 6.907 0 010-5.202 6.834 6.834 0 011.452-2.213 6.73 6.73 0 012.187-1.489A6.66 6.66 0 018.737 24zM13 26.519l-.514-.505h1.029l-.515.505zm0 0l-.912.896.912-.896zm-6.184 2.296l-1.428-1.4 1.427 1.4a2.845 2.845 0 00-.602.919 2.907 2.907 0 000 2.189c.141.346.346.657.602.918l.913.93L13 39.145l5.272-5.372.913-.93A2.875 2.875 0 0020 30.827c0-.762-.297-1.485-.815-2.013A2.692 2.692 0 0017.263 28c-.714 0-1.406.289-1.922.815l-.913.93a2 2 0 01-2.855 0l-.913-.93a2.733 2.733 0 00-.887-.605 2.66 2.66 0 00-2.07 0 2.74 2.74 0 00-.887.605z" fill="url(#paint0_linear)"/><defs><linearGradient id="paint0_linear" x1="2" y1="24" x2="46" y2="24" gradientUnits="userSpaceOnUse"><stop stop-color="#F44336"/><stop offset="1" stop-color="#C23564"/></linearGradient></defs></svg>