<svg fill="none" xmlns="http://www.w3.org/2000/svg" viewBox="0 0 90 60"><path d="M5 43h79" stroke="#E9EFFF" stroke-width="2" stroke-linecap="round" stroke-linejoin="round"/><path d="M65 22l-5 5H30l-4-2h-2s7 4 8 11c18 0 20-7 20-7h8c5 0 5-7 5-7z" fill="#ADC6FE"/><path d="M42.449 20.69l-4.864 2.161A4.119 4.119 0 0133 22l9.62-4.373A7 7 0 0145.516 17H57.5a3 3 0 01-3 3h-8.802a8 8 0 00-3.25.69z" fill="#E9EFFF"/><path d="M31 22l11.267-4.334a10 10 0 013.59-.666H58m0 0l6 5-.242.97A4 4 0 0159.877 26H47m11-9h.782a10 10 0 014.228.938L76 24l4.806-.961c.129-.026.26-.039.392-.039H85l-4 3h3v2l-3 1 3 3v.941a4 4 0 01-1.675 3.255L77 40v-2s0-8-8-8-8 8-8 8v1H28v-1s0-8-8-8-8 8-8 8v1H8l-3-2v-2s1.301-.15 2-.5c1.105-.552 1-2.5 1-2.5H5v-2s7.903-2.505 13-4c2.728-.8 7-2 7-2l3.875 2H47m0 0v-4" stroke="#3955FE" stroke-width="2" stroke-linecap="round" stroke-linejoin="round"/><rect x="-1" y="1" width="10" height="10" rx="5" transform="matrix(-1 0 0 1 73 32)" stroke="#262425" stroke-width="2"/><mask id="a" fill="#fff"><path d="M71 38h-4a2 2 0 104 0z"/></mask><path d="M71 38v-2h2v2h-2zm-4 0h-2v-2h2v2zm2 0h4a4 4 0 01-4 4v-4zm0 0v4a4 4 0 01-4-4h4zm2 2h-4v-4h4v4z" fill="#ADC6FE" mask="url(#a)"/><mask id="b" fill="#fff"><path d="M22 38h-4a2 2 0 104 0z"/></mask><path d="M22 38v-2h2v2h-2zm-4 0h-2v-2h2v2zm2 0h4a4 4 0 01-4 4v-4zm0 0v4a4 4 0 01-4-4h4zm2 2h-4v-4h4v4z" fill="#ADC6FE" mask="url(#b)"/><rect x="-1" y="1" width="10" height="10" rx="5" transform="matrix(-1 0 0 1 24 32)" stroke="#262425" stroke-width="2"/></svg>