<svg fill="none" xmlns="http://www.w3.org/2000/svg" viewBox="0 0 90 60"><path d="M6 43h78" stroke="#E9EFFF" stroke-width="2" stroke-linecap="round" stroke-linejoin="round"/><path d="M68 23l-6 4H22s10 2 11 9c18 0 19-7 19-7h10c4 0 6-6 6-6z" fill="#ADC6FE"/><path d="M42.382 20.079l-2.029 1.352A3.45 3.45 0 0136 21l6.298-3.936A7 7 0 0146.008 16H57.5a3 3 0 01-3 3h-8.555a6.423 6.423 0 00-3.563 1.079z" fill="#E9EFFF"/><path d="M30 23l11.889-5.944A10.001 10.001 0 0146.36 16H58m0 0l9 7-2.933 2.2a4 4 0 01-2.4.8H59m-1-10h.5a10 10 0 014.706 1.177L76 24h4a2 2 0 011.6.8L84 28l-3 3 3 1v.941a4 4 0 01-1.675 3.255L77 40v-2s0-8-8-8-8 8-8 8v1H29v-1s0-8-8-8-8 8-8 8v1H9l-3-2v-3l2-2-2-1v-1s6.29-2.219 10-3c3.71-.781 9-1 9-1h22m0 0v-6m0 6h12m0 0l-1-3" stroke="#3955FE" stroke-width="2" stroke-linecap="round" stroke-linejoin="round"/><rect x="-1" y="1" width="10" height="10" rx="5" transform="matrix(-1 0 0 1 73 32)" stroke="#262425" stroke-width="2"/><mask id="a" fill="#fff"><path d="M71 38h-4a2 2 0 104 0z"/></mask><path d="M71 38v-2h2v2h-2zm-4 0h-2v-2h2v2zm2 0h4a4 4 0 01-4 4v-4zm0 0v4a4 4 0 01-4-4h4zm2 2h-4v-4h4v4z" fill="#ADC6FE" mask="url(#a)"/><mask id="b" fill="#fff"><path d="M23 38h-4a2 2 0 104 0z"/></mask><path d="M23 38v-2h2v2h-2zm-4 0h-2v-2h2v2zm2 0h4a4 4 0 01-4 4v-4zm0 0v4a4 4 0 01-4-4h4zm2 2h-4v-4h4v4z" fill="#ADC6FE" mask="url(#b)"/><rect x="-1" y="1" width="10" height="10" rx="5" transform="matrix(-1 0 0 1 25 32)" stroke="#262425" stroke-width="2"/></svg>