<svg fill="none" xmlns="http://www.w3.org/2000/svg" viewBox="0 0 90 60"><path d="M80 43H10" stroke="#E9EFFF" stroke-width="2" stroke-linecap="round" stroke-linejoin="round"/><path d="M24 27s10 1 11 8c11 0 13-6 13-6h14c4 0 7-.5 8-2s0-3 0-3l-3 2-14 1-2-7-3 7H24z" fill="#ADC6FE"/><path d="M41.382 20.079l-2.029 1.352A3.45 3.45 0 0135 21l6.298-3.936A7 7 0 0145.008 16H62a3 3 0 01-3 3H44.945a6.423 6.423 0 00-3.563 1.079z" fill="#E9EFFF"/><path d="M32 23l7.418-5.192A10 10 0 0145.152 16H52m0 0h11.858a10 10 0 017.07 2.929l6.143 6.142A10 10 0 0180 32.142v2.788a2 2 0 01-.89 1.664L77 38s0-8-8-8-8 8-8 8H31s0-8-8-8-8 8-8 8l-4-1-1-4 5-3-4-1 .071-.071A10 10 0 0118.142 26H48l4-10zm0 0v10h15.263c1.597 0 2.55-1.78 1.664-3.11L67 20" stroke="#3955FE" stroke-width="2" stroke-linecap="round" stroke-linejoin="round"/><rect x="-1" y="1" width="10" height="10" rx="5" transform="matrix(-1 0 0 1 73 32)" stroke="#262425" stroke-width="2"/><mask id="a" fill="#fff"><path d="M71 38h-4a2 2 0 104 0z"/></mask><path d="M71 38v-2h2v2h-2zm-4 0h-2v-2h2v2zm2 0h4a4 4 0 01-4 4v-4zm0 0v4a4 4 0 01-4-4h4zm2 2h-4v-4h4v4z" fill="#ADC6FE" mask="url(#a)"/><mask id="b" fill="#fff"><path d="M25 38h-4a2 2 0 104 0z"/></mask><path d="M25 38v-2h2v2h-2zm-4 0h-2v-2h2v2zm2 0h4a4 4 0 01-4 4v-4zm0 0v4a4 4 0 01-4-4h4zm2 2h-4v-4h4v4z" fill="#ADC6FE" mask="url(#b)"/><rect x="-1" y="1" width="10" height="10" rx="5" transform="matrix(-1 0 0 1 27 32)" stroke="#262425" stroke-width="2"/></svg>