<svg viewBox="0 0 24 24" fill="none" xmlns="http://www.w3.org/2000/svg"><path fill-rule="evenodd" clip-rule="evenodd" d="M2.574 12.709c-.18-.278-.324-.52-.433-.708a18.678 18.678 0 012.464-3.316C6.395 6.775 8.9 5 12 5c3.1 0 5.605 1.774 7.395 3.684A18.681 18.681 0 0121.86 12a18.678 18.678 0 01-2.464 3.316C17.606 17.226 15.102 19 12.001 19c-3.1 0-5.604-1.774-7.395-3.684a18.674 18.674 0 01-2.03-2.608zm21.32-1.156l-.894.448.894.448-.002.003-.003.007-.011.022a9.13 9.13 0 01-.192.354 20.672 20.672 0 01-2.831 3.85C18.895 18.775 15.899 21 12 21c-3.9 0-6.896-2.227-8.855-4.316a20.67 20.67 0 01-2.831-3.85 12.339 12.339 0 01-.192-.354l-.011-.022-.003-.007-.002-.002v-.001L1 12l-.894-.448.002-.003.003-.007.011-.022a8.267 8.267 0 01.192-.354 20.672 20.672 0 012.831-3.85C5.105 5.227 8.1 3.001 12 3.001c3.9 0 6.895 2.226 8.855 4.316a20.673 20.673 0 012.831 3.85 11.81 11.81 0 01.192.354l.011.022.003.007.002.002v.001zm-.894.448l.894-.447a1 1 0 010 .894L23 12.001zM.106 11.554L1 12l-.894.447a1 1 0 010-.894zM10 12a2 2 0 114 0 2 2 0 01-4 0zm2-4a4 4 0 100 8 4 4 0 000-8z" fill="#3955FE"/></svg>