<svg viewBox="0 0 36 36" fill="none" xmlns="http://www.w3.org/2000/svg"><path fill-rule="evenodd" clip-rule="evenodd" d="M5 17.172v-.781A12.133 12.133 0 0116.39 5h.782a11.966 11.966 0 015.426 1.284l.008.004a12.167 12.167 0 016.727 10.879v.004a11.965 11.965 0 01-1.285 5.426 2 2 0 00-.112 1.535l1.902 5.705-5.706-1.902a2 2 0 00-1.534.112 11.965 11.965 0 01-5.426 1.285h-.005A12.166 12.166 0 016.29 22.606l-.004-.008A11.966 11.966 0 015 17.172zm25.628 15.037L33 33l-.79-2.372-2.377-7.128a13.965 13.965 0 001.5-6.333A14.167 14.167 0 0023.5 4.5 13.966 13.966 0 0017.167 3h-.834A14.133 14.133 0 003 16.333v.834c-.006 2.2.508 4.37 1.5 6.333a14.167 14.167 0 0012.667 7.833c2.2.006 4.37-.508 6.333-1.5l7.128 2.376z" fill="url(#paint0_linear)"/><defs><linearGradient id="paint0_linear" x1="18" y1="3" x2="18" y2="33" gradientUnits="userSpaceOnUse"><stop stop-color="#18CED6"/><stop offset="1" stop-color="#18AED6"/></linearGradient></defs></svg>