<svg fill="none" xmlns="http://www.w3.org/2000/svg" viewBox="0 0 90 60"><path d="M6 44h79" stroke="#E9EFFF" stroke-width="2" stroke-linecap="round" stroke-linejoin="round"/><path d="M41 17l-2 5-2 2-21 1-4 2s19-2 19 10c8 0 7-10 7-10s1.668-1.234 2.5-3c1.013-2.149.5-7 .5-7zm4 0l1.45 5 2 2L72 25s0 2-2 2H50c-2 0-3.668-1.234-4.5-3-.5-1.061-.5-7-.5-7z" fill="#ADC6FE"/><path d="M70 20H46v-3h27a3 3 0 01-3 3zm-44.11.833l-.627.47A3.261 3.261 0 0121 21l4.236-2.824A7 7 0 0129.12 17H37a3 3 0 01-3 3h-5.612c-.9 0-1.778.292-2.498.833z" fill="#E9EFFF"/><path d="M27 17l-8 5m8-5l4.05-2.43a4 4 0 012.058-.57H76.72a4 4 0 013.922 3.215L82 24h-1.766a4 4 0 01-3.912-3.162L75.5 17H46v2.789a4 4 0 00.672 2.219l.14.21A4 4 0 0050.142 24H56m-29-7h13v2.789a4 4 0 01-.672 2.219l-.202.303a4 4 0 01-3.154 1.777l-18.842.82a9.999 9.999 0 00-4.037 1.046L7 29l2 2-3 3v1.292a4 4 0 002.514 3.714L11 40v-1s0-8 8-8 8 8 8 8v1h39v-2s0-7 8-7 8 7 8 7l2.11-1.406A2 2 0 0085 34.93V32l-1-1-.621-2.485A2 2 0 0081.439 27H80m-24-3h16m-16 0v-3" stroke="#3955FE" stroke-width="2" stroke-linecap="round" stroke-linejoin="round"/><rect x="-1" y="1" width="10" height="10" rx="5" transform="matrix(-1 0 0 1 78 33)" stroke="#262425" stroke-width="2"/><mask id="a" fill="#fff"><path d="M76 39h-4a2 2 0 104 0z"/></mask><path d="M76 39v-2h2v2h-2zm-4 0h-2v-2h2v2zm2 0h4a4 4 0 01-4 4v-4zm0 0v4a4 4 0 01-4-4h4zm2 2h-4v-4h4v4z" fill="#ADC6FE" mask="url(#a)"/><mask id="b" fill="#fff"><path d="M21 39h-4a2 2 0 104 0z"/></mask><path d="M21 39v-2h2v2h-2zm-4 0h-2v-2h2v2zm2 0h4a4 4 0 01-4 4v-4zm0 0v4a4 4 0 01-4-4h4zm2 2h-4v-4h4v4z" fill="#ADC6FE" mask="url(#b)"/><rect x="-1" y="1" width="10" height="10" rx="5" transform="matrix(-1 0 0 1 23 33)" stroke="#262425" stroke-width="2"/></svg>