<svg viewBox="0 0 62 62" fill="none" xmlns="http://www.w3.org/2000/svg"><path fill-rule="evenodd" clip-rule="evenodd" d="M35.442 1.6a6.963 6.963 0 00-8.884 0l-1.801 1.49a4.967 4.967 0 01-3.743 1.108l-2.314-.27c-3.322-.39-6.445 1.64-7.47 4.835l-.717 2.234a5.035 5.035 0 01-2.56 2.98l-2.091 1.034c-2.999 1.481-4.536 4.885-3.686 8.128l.595 2.27a5.093 5.093 0 01-.557 3.91l-1.205 2.01A7.086 7.086 0 002.27 40.17l1.718 1.586a5.072 5.072 0 011.626 3.59l.063 2.347c.09 3.354 2.518 6.187 5.812 6.757l2.296.397a4.995 4.995 0 013.285 2.13l1.312 1.94a6.973 6.973 0 008.523 2.52l2.144-.916a4.956 4.956 0 013.9 0l2.144.917a6.973 6.973 0 008.523-2.521l1.312-1.94a4.997 4.997 0 013.285-2.13l2.296-.397c3.294-.57 5.721-3.403 5.812-6.757l.063-2.347a5.072 5.072 0 011.626-3.59l1.718-1.586a7.086 7.086 0 001.262-8.843l-1.205-2.01a5.093 5.093 0 01-.557-3.908l.595-2.27c.85-3.244-.687-6.648-3.686-8.13l-2.091-1.033a5.035 5.035 0 01-2.56-2.98l-.717-2.234C49.745 5.57 46.622 3.54 43.3 3.928l-2.314.27a4.967 4.967 0 01-3.743-1.108L35.442 1.6zm-7.61 1.542a4.963 4.963 0 016.336 0l1.8 1.49a6.967 6.967 0 005.25 1.553l2.314-.271c2.362-.276 4.598 1.166 5.334 3.46l.717 2.234a7.036 7.036 0 003.578 4.162l2.091 1.034c2.14 1.057 3.249 3.495 2.637 5.828l-.595 2.27a7.093 7.093 0 00.777 5.445l1.205 2.01a5.086 5.086 0 01-.904 6.345l-1.718 1.585a7.072 7.072 0 00-2.268 5.006l-.063 2.347c-.066 2.413-1.81 4.434-4.154 4.84l-2.296.398a6.997 6.997 0 00-4.6 2.98l-1.313 1.94a4.973 4.973 0 01-6.08 1.802l-2.144-.917a6.956 6.956 0 00-5.472 0l-2.145.917a4.973 4.973 0 01-6.08-1.803l-1.312-1.94a6.997 6.997 0 00-4.6-2.98l-2.296-.397c-2.344-.406-4.088-2.427-4.154-4.84l-.063-2.347a7.072 7.072 0 00-2.268-5.006l-1.719-1.585a5.086 5.086 0 01-.903-6.345l1.205-2.01a7.097 7.097 0 00.777-5.444l-.595-2.27c-.612-2.334.497-4.772 2.637-5.83l2.091-1.033a7.036 7.036 0 003.578-4.162l.717-2.234c.736-2.294 2.972-3.736 5.334-3.46l2.313.27a6.967 6.967 0 005.25-1.553l1.801-1.489zM31 12c-10.493 0-19 8.507-19 19s8.507 19 19 19c3.862 0 7.452-1.151 10.45-3.129a1 1 0 111.1 1.67A20.906 20.906 0 0131 52c-11.598 0-21-9.402-21-21s9.402-21 21-21 21 9.402 21 21c0 5.325-1.983 10.19-5.25 13.89a1 1 0 01-1.5-1.323A18.925 18.925 0 0050 31c0-10.493-8.507-19-19-19zm-9 10a2 2 0 100 4 2 2 0 000-4zm-4 2a4 4 0 118 0 4 4 0 01-8 0zm20 14a2 2 0 114 0 2 2 0 01-4 0zm2-4a4 4 0 100 8 4 4 0 000-8zm-8.562-11.902a4 4 0 116.928 4l-8 13.857a4 4 0 01-6.928-4l8-13.857zm4.464.268a2 2 0 00-2.732.732l-8 13.857a2 2 0 103.464 2l8-13.857a2 2 0 00-.732-2.732z" fill="url(#paint0_linear)"/><defs><linearGradient id="paint0_linear" x1="31" y1="0" x2="31" y2="62" gradientUnits="userSpaceOnUse"><stop stop-color="#18CED6"/><stop offset="1" stop-color="#18AED6"/></linearGradient></defs></svg>