<svg fill="none" xmlns="http://www.w3.org/2000/svg" viewBox="0 0 90 60"><path d="M86 43H4" stroke="#E9EFFF" stroke-width="2" stroke-linecap="round" stroke-linejoin="round"/><path d="M81 24l-17 3H26l-6 .5S30 29 31 36c18 0 19-7 19-7h13l18-5z" fill="#ADC6FE"/><path d="M40.437 20.38l-3.972 2.233A3.73 3.73 0 0132 22l10.522-5.261a7 7 0 013.13-.739H57a4.3 4.3 0 01-3.686 2.692l-9.525.68a8.001 8.001 0 00-3.352 1.007z" fill="#E9EFFF"/><path d="M57 16h-7m7 0l4.563 4.943a4 4 0 003.532 1.243L73 21l-11.261-4.692A4 4 0 0060.2 16H57zm-7 0h-1.837a24 24 0 00-14.633 4.977L27 26m23-10v6m-23 4l-9.043.904a9.998 9.998 0 00-1.878.372L7 30h3l-3 3m20-7h36.65a4 4 0 00.695-.06L81 23l2.2 1.886a1 1 0 01-.309 1.699l-3.117 1.133A1.176 1.176 0 0080.176 30H84a2 2 0 012 2v1.868a2 2 0 01-.971 1.715L81.95 37.43a4 4 0 01-2.058.57H77s0-8-8-8-8 9-8 9H27s0-9-8-9-8 9-8 9H7.07a2 2 0 01-1.664-.89l-.496-.746a2 2 0 01.25-2.523L7 33m0 0H5" stroke="#3955FE" stroke-width="2" stroke-linecap="round" stroke-linejoin="round"/><rect x="-1" y="1" width="10" height="10" rx="5" transform="matrix(-1 0 0 1 73 32)" stroke="#262425" stroke-width="2"/><mask id="a" fill="#fff"><path d="M71 38h-4a2 2 0 104 0z"/></mask><path d="M71 38v-2h2v2h-2zm-4 0h-2v-2h2v2zm2 0h4a4 4 0 01-4 4v-4zm0 0v4a4 4 0 01-4-4h4zm2 2h-4v-4h4v4z" fill="#ADC6FE" mask="url(#a)"/><mask id="b" fill="#fff"><path d="M21 38h-4a2 2 0 104 0z"/></mask><path d="M21 38v-2h2v2h-2zm-4 0h-2v-2h2v2zm2 0h4a4 4 0 01-4 4v-4zm0 0v4a4 4 0 01-4-4h4zm2 2h-4v-4h4v4z" fill="#ADC6FE" mask="url(#b)"/><rect x="-1" y="1" width="10" height="10" rx="5" transform="matrix(-1 0 0 1 23 32)" stroke="#262425" stroke-width="2"/></svg>