<svg viewBox="0 0 48 48" fill="none" xmlns="http://www.w3.org/2000/svg"><path fill-rule="evenodd" clip-rule="evenodd" d="M37.87 6.921A21.904 21.904 0 0024 2C11.85 2 2 11.85 2 24s9.85 22 22 22 22-9.85 22-22a21.91 21.91 0 00-5.322-14.348 1 1 0 011.516-1.304A23.91 23.91 0 0148 24c0 13.255-10.745 24-24 24S0 37.255 0 24 10.745 0 24 0a23.905 23.905 0 0115.13 5.37 1 1 0 01-1.26 1.551zM24 6c2.556 0 4.936.782 6.694 2.278 1.774 1.51 2.86 3.705 2.86 6.384v5.723a9.69 9.69 0 01-1.992 5.905v3.826A11.387 11.387 0 0138.3 33.32a2.34 2.34 0 01.285 3.002c-1.77 2.552-4.728 3.95-7.49 4.72C28.31 41.816 25.561 42 24 42c-1.562 0-4.038-.157-6.583-.797a1 1 0 11.488-1.94c2.342.59 4.645.737 6.095.737 1.439 0 3.997-.172 6.558-.885 2.582-.72 5.004-1.945 6.382-3.932a.34.34 0 00-.04-.434 9.382 9.382 0 00-6.362-2.7l-.976-.023v-3.88a8.693 8.693 0 01-.224.155C28.093 29.136 26.26 30 24 30c-2.26 0-4.093-.864-5.338-1.7a11.432 11.432 0 01-.224-.154v3.88l-.976.024a9.382 9.382 0 00-6.362 2.7.34.34 0 00-.04.433c.83 1.196 2.014 2.118 3.394 2.822a1 1 0 11-.908 1.781c-1.59-.81-3.064-1.927-4.13-3.464a2.34 2.34 0 01.285-3.002 11.387 11.387 0 016.737-3.204V26.29a9.69 9.69 0 01-1.992-5.905v-5.723c0-2.679 1.087-4.873 2.86-6.384C19.064 6.782 21.444 6 24 6zm5.782 19.314l.014-.016a7.686 7.686 0 001.758-4.913v-5.723c0-2.097-.833-3.734-2.157-4.86C28.057 8.66 26.161 8 24 8c-2.16 0-4.058.661-5.397 1.801-1.324 1.127-2.157 2.764-2.157 4.861v5.723c0 1.813.622 3.538 1.758 4.913l.014.016.07.077c.065.07.166.174.3.302.27.256.673.601 1.188.947C20.81 27.334 22.26 28 24 28c1.74 0 3.189-.666 4.224-1.36a9.291 9.291 0 001.188-.947 6.87 6.87 0 00.37-.38z" fill="url(#paint0_linear)"/><defs><linearGradient id="paint0_linear" x1="24" y1="0" x2="24" y2="48" gradientUnits="userSpaceOnUse"><stop stop-color="#18CED6"/><stop offset="1" stop-color="#18AED6"/></linearGradient></defs></svg>