<svg viewBox="0 0 64 64" fill="none" xmlns="http://www.w3.org/2000/svg"><path fill-rule="evenodd" clip-rule="evenodd" d="M56.832 24.555a1 1 0 01-1.387.277l-3-2a1 1 0 011.11-1.664l3 2a1 1 0 01.277 1.387zm2.615-5.66a1 1 0 01-.894 0l-2-1a1 1 0 01-.447-.448l-1-2a1 1 0 010-.894l1-2a1 1 0 01.447-.447l2-1a1 1 0 01.894 0l2 1a1 1 0 01.447.447l1 2a1 1 0 010 .894l-1 2a1 1 0 01-.447.448l-2 1zm.808-2.64L60.882 15l-.627-1.255L59 13.118l-1.255.627L57.118 15l.627 1.255 1.255.627 1.255-.627zm-2.74-8.397a1 1 0 01-1.373-.343l-.985-1.643-1.642.986a1 1 0 01-1.03-1.715l1.643-.986-.986-1.642a1 1 0 011.715-1.03l.986 1.643 1.642-.985a1 1 0 111.03 1.715l-1.643.985.986 1.643a1 1 0 01-.343 1.372zm-48.96-6.69a1 1 0 00-1.11 1.664l3 2a1 1 0 001.11-1.664l-3-2zM5.707 7.293a1 1 0 00-1.414 0l-3 3a1 1 0 000 1.414l3 3a1 1 0 001.414 0l3-3a1 1 0 000-1.414l-3-3zM5 12.586L3.414 11 5 9.414 6.586 11 5 12.586zm2.857 5.9a1 1 0 00-1.714 1.029l.985 1.642-1.642.985a1 1 0 001.029 1.716l1.642-.986.986 1.643a1 1 0 101.714-1.03l-.985-1.642 1.643-.985a1 1 0 00-1.03-1.716l-1.642.986-.986-1.643zm22.404 14.188a1 1 0 001.44.04l19-18.655a1 1 0 00.111-1.297l-6-8.346A1 1 0 0044 4H20a1 1 0 00-.812.416l-6 8.346a1 1 0 00.073 1.257l17 18.655zM44 6.714l-4.05 5.631h8.1L44 6.713zM33.95 6h8.1L38 11.632 33.95 6zM32 6.713l4.05 5.632h-8.1L32 6.713zM30.05 6L26 11.632 21.95 6h8.1zm-14.1 6.345L20 6.713l4.05 5.632h-8.1zm.314 2h8.969l3.737 13.942-12.706-13.941zm31.29 0l-14.03 13.776 5.169-13.775h8.861zM31.16 28.73l5.398-14.385h-9.254L31.16 28.73zM2.033 33L2 34l.033-1A1 1 0 001 34v19a1 1 0 102 0V35.068l.341.031c.851.084 2 .231 3.202.49 1.209.26 2.435.622 3.46 1.122 1.038.507 1.76 1.1 2.116 1.763.522.97.7 1.32.789 1.674.088.355.096.746.092 1.849V42c0 5.037-.836 7.886-1.784 11.119l-.001.004-.175.597c-.312 1.07-1.162 2.777-1.84 3.68-.25.333-.687.568-1.38.664-.69.097-1.516.036-2.349-.111-.823-.146-1.6-.366-2.177-.553a17.185 17.185 0 01-.861-.304l-.044-.017-.01-.004h-.001a1 1 0 00-.756 1.851L2 58l-.377.926.002.001.005.002.017.007.059.023.213.081a19.732 19.732 0 003.204.883c.933.164 1.99.26 2.975.122.984-.138 2.014-.528 2.702-1.445.52-.693 1.094-1.716 1.542-2.704 1.22 1.24 2.574 2.18 4.21 2.998C19.779 60.508 24.735 61 29.25 61c4.548 0 8.886-.503 10.992-1.03 1.126-.281 3.155-1.163 5.448-2.362 2.321-1.213 5.002-2.797 7.451-4.534 2.435-1.728 4.705-3.651 6.148-5.555 1.404-1.85 2.285-4.056 1.063-6.043-1.033-1.677-2.517-2.187-3.86-2.161-1.27.024-2.397.52-2.94.79v.002L41.22 46.3c-.08-.963-.45-2.164-1.596-3.08-1.322-1.058-3.9-2.73-7.044-4.077-3.137-1.344-6.93-2.406-10.652-2.14-3.598.257-5.694 1.037-6.974 2.015a5.576 5.576 0 00-.246.2c-.175-.478-.44-.968-.786-1.613l-.042-.078c-.64-1.19-1.79-2.023-3.002-2.614-1.224-.597-2.623-1.002-3.916-1.28a30.988 30.988 0 00-4.898-.631L2.043 33h-.009zm15.414 24.106c-1.762-.881-3.11-1.89-4.339-3.333l.03-.1c.946-3.224 1.836-6.26 1.861-11.446l.042-.091.018-.04c.222-.494.44-.976 1.11-1.489.846-.646 2.5-1.366 5.902-1.61 3.278-.234 6.735.704 9.723 1.985 2.981 1.277 5.403 2.856 6.581 3.799.639.51.836 1.19.86 1.82a3.77 3.77 0 01-.108 1.037l-.008.03c0 .004-.002.008-.003.011a4.333 4.333 0 01-1.14 1.67c-.496.438-1.012.651-1.476.651-.62 0-1.553-.161-2.664-.439a47.593 47.593 0 01-3.395-1.01 83.937 83.937 0 01-3.989-1.447l-.061-.025-.015-.006-.004-.001a1 1 0 00-.743 1.856L26 48l-.371.929h.002l.004.002.017.007.066.026.248.097a85.843 85.843 0 003.843 1.388c1.138.38 2.383.763 3.542 1.053 1.14.284 2.27.498 3.149.498 1.08 0 2.048-.489 2.8-1.152a6.3 6.3 0 001.546-2.122l13.601-6.831h.001c.458-.23 1.262-.565 2.082-.58.748-.015 1.513.225 2.118 1.21.528.856.347 2.072-.953 3.786-1.26 1.661-3.334 3.445-5.711 5.131-2.363 1.677-4.964 3.214-7.22 4.394-2.286 1.194-4.132 1.975-5.007 2.194-1.893.473-6.055.97-10.507.97-4.483 0-9.027-.507-11.803-1.894z" fill="url(#paint0_linear)"/><defs><linearGradient id="paint0_linear" x1="32" y1="1" x2="32" y2="61" gradientUnits="userSpaceOnUse"><stop stop-color="#18CED6"/><stop offset="1" stop-color="#18AED6"/></linearGradient></defs></svg>