<svg width="90" height="60" viewBox="0 0 90 60" fill="none" xmlns="http://www.w3.org/2000/svg">
<path d="M82 43L8 43" stroke="#E9EFFF" stroke-width="2" stroke-linecap="round" stroke-linejoin="round"/>
<path d="M31 25L18 27C18 27 25.1717 26.9006 29 29C32.3898 30.8589 34 34 34 34L39 35C46.5 35 50 30 50 30L61 28L75 25H61L49 26L38 28L39.6 32H37.6L31 25Z" fill="#ADC6FE"/>
<path d="M44 21L40.3534 23.4311C38.985 24.3433 37.1629 24.1629 36 23L42.2976 19.064C43.4101 18.3687 44.6956 18 46.0076 18H57C57 19.6569 55.6569 21 54 21H44Z" fill="#E9EFFF"/>
<path d="M51 18H44L31.5 25M51 18V22M51 18H58M31.5 25L18.855 25.9367C18.286 25.9788 17.7217 26.0696 17.1683 26.2079L10 28L15 29L14 31L8 32L10 33V37L8 38L10 39H15V38C15 38 15 30 23 30C31 30 31 38 31 38V39H61V38C61 38 61 30 69 30C77 30 77 38 77 38V39L80.058 37.1652C81.2628 36.4423 82 35.1403 82 33.7352V31.3246C82 31.1096 81.9653 30.896 81.8974 30.6921L81 28H76L71 25M31.5 25L39 34L40 33L38 28L49 26L61 25H71M58 18L68 22L62.3199 21.1886C61.4631 21.0662 60.6692 20.6692 60.0572 20.0572L58 18ZM71 25H78" stroke="#3955FE" stroke-width="2" stroke-linecap="round" stroke-linejoin="round"/>
<rect x="-1" y="1" width="10" height="10" rx="5" transform="matrix(-1 0 0 1 73 32)" stroke="#262425" stroke-width="2"/>
<mask id="path-6-inside-1" fill="white">
<path d="M71 38H67C67 39.1046 67.8954 40 69 40C70.1046 40 71 39.1046 71 38Z"/>
</mask>
<path d="M71 38V36H73V38H71ZM67 38H65V36H67V38ZM69 38H73C73 40.2091 71.2091 42 69 42V38ZM69 38V42C66.7909 42 65 40.2091 65 38H69ZM71 40H67V36H71V40Z" fill="#ADC6FE" mask="url(#path-6-inside-1)"/>
<mask id="path-8-inside-2" fill="white">
<path d="M25 38H21C21 39.1046 21.8954 40 23 40C24.1046 40 25 39.1046 25 38Z"/>
</mask>
<path d="M25 38V36H27V38H25ZM21 38H19V36H21V38ZM23 38H27C27 40.2091 25.2091 42 23 42V38ZM23 38V42C20.7909 42 19 40.2091 19 38H23ZM25 40H21V36H25V40Z" fill="#ADC6FE" mask="url(#path-8-inside-2)"/>
<rect x="-1" y="1" width="10" height="10" rx="5" transform="matrix(-1 0 0 1 27 32)" stroke="#262425" stroke-width="2"/>
</svg>
