<svg viewBox="0 0 48 48" fill="none" xmlns="http://www.w3.org/2000/svg">
<path fill-rule="evenodd" clip-rule="evenodd" d="M14.5282 4C16.1824 4 17.8187 4.33637 19.3433 4.9882C20.8675 5.6399 22.2483 6.59331 23.4083 7.7908L23.4086 7.79114L24.0005 8.40186L24.5927 7.7908C26.9368 5.37197 30.1298 4.00106 33.4728 4.00106C36.8158 4.00106 40.0087 5.37197 42.3529 7.7908C44.6949 10.2075 46 13.4722 46 16.8637C46 20.2552 44.6949 23.52 42.3529 25.9367L40.3245 28.0297L25.4367 43.3919C24.668 44.1851 23.4018 44.2049 22.6086 43.4362C21.8154 42.6675 21.7956 41.4013 22.5643 40.6081L37.452 25.246L39.4804 23.1529C41.0868 21.4953 42 19.2342 42 16.8637C42 14.4933 41.0868 12.2321 39.4804 10.5745C37.8761 8.91905 35.7137 8.00106 33.4728 8.00106C31.2318 8.00106 29.0695 8.91905 27.4651 10.5745L25.4367 12.6676C25.06 13.0563 24.5418 13.2757 24.0005 13.2757C23.4592 13.2757 22.941 13.0563 22.5643 12.6676L20.5359 10.5745L20.5356 10.5742C19.7409 9.75384 18.8009 9.10655 17.7708 8.66613C16.7408 8.22578 15.6392 8 14.5282 8C13.4173 8 12.3157 8.22578 11.2857 8.66613C10.2556 9.10655 9.31555 9.75385 8.52092 10.5742L8.52026 10.5749C7.72514 11.3949 7.09119 12.372 6.65758 13.4518C6.22394 14.5317 6 15.6913 6 16.8637C6 17.4545 6.05687 18.0422 6.16887 18.6183C6.37968 19.7025 5.67161 20.7524 4.58735 20.9632C3.50308 21.1741 2.45321 20.466 2.2424 19.3817C2.08155 18.5545 2 17.7111 2 16.8637C2 15.183 2.32085 13.5173 2.94567 11.9613C3.57052 10.4052 4.48794 8.98743 5.64848 7.79046C6.80847 6.59313 8.18909 5.63984 9.7132 4.9882C11.2377 4.33637 12.8741 4 14.5282 4ZM8.73771 24C9.62789 24 10.5084 24.1788 11.3287 24.5252C11.9336 24.7806 12.4963 25.1232 13.0003 25.5406C14.1946 24.5518 15.6979 24.0005 17.2628 24.0005C19.0619 24.0005 20.7796 24.7292 22.04 26.0138C23.2992 27.297 24 29.0296 24 30.8283C24 32.6271 23.2992 34.3596 22.04 35.6429L21.1273 36.5731L14.4278 43.4008C14.0517 43.784 13.5372 44 13.0002 44C12.4632 44 11.9488 43.784 11.5727 43.4008L4.8732 36.5731L3.96075 35.6432L3.96042 35.6429C3.33658 35.0073 2.84366 34.2548 2.50801 33.4292C2.17232 32.6036 2 31.7199 2 30.8283C2 29.9368 2.17232 29.0531 2.50801 28.2274C2.8436 27.402 3.33641 26.6496 3.96009 26.0141C4.58387 25.3781 5.32656 24.8715 6.14673 24.5252C6.96698 24.1788 7.84752 24 8.73771 24ZM13.0002 26.5189L12.4855 26.0138H13.515L13.0002 26.5189ZM13.0002 26.5189L13.0004 26.5191L12.0875 27.4145L13.0002 26.5189ZM6.81584 28.8149L5.38791 27.4145L6.81519 28.8156C6.55913 29.0764 6.35404 29.3882 6.21345 29.734C6.07284 30.0798 6 30.4518 6 30.8283C6 31.2049 6.07284 31.5768 6.21345 31.9227C6.35404 32.2685 6.55913 32.5802 6.81519 32.841L6.81551 32.8414L7.7283 33.7716L13.0002 39.1444L18.2722 33.7716L19.1849 32.8414C19.7026 32.3138 20 31.5904 20 30.8283C20 30.0662 19.7026 29.3428 19.1849 28.8153C18.6686 28.289 17.9764 28.0005 17.2628 28.0005C16.5491 28.0005 15.8569 28.289 15.3406 28.8153L14.4278 29.7455C14.0517 30.1288 13.5372 30.3448 13.0002 30.3448C12.4632 30.3448 11.9488 30.1288 11.5727 29.7455L10.6599 28.8153L10.6596 28.8149C10.4037 28.5541 10.102 28.3492 9.77263 28.2101C9.44337 28.0711 9.09181 28 8.73771 28C8.3836 28 8.03205 28.0711 7.70278 28.2101C7.37343 28.3492 7.07171 28.5541 6.81584 28.8149Z" fill="url(#paint0_linear)"/>
<defs>
<linearGradient id="paint0_linear" x1="2" y1="24" x2="46" y2="24" gradientUnits="userSpaceOnUse">
<stop stop-color="#F44336"/>
<stop offset="1" stop-color="#C23564"/>
</linearGradient>
</defs>
</svg>
