<svg width="90" height="60" viewBox="0 0 90 60" fill="none" xmlns="http://www.w3.org/2000/svg">
<path d="M5 43L84 43" stroke="#E9EFFF" stroke-width="2" stroke-linecap="round" stroke-linejoin="round"/>
<path d="M65 22L60 27H30L26 25H24C24 25 31 29 32 36C50 36 52 29 52 29H60C65 29 65 22 65 22Z" fill="#ADC6FE"/>
<path d="M42.4486 20.6895L37.5847 22.8513C36.0275 23.5433 34.2049 23.2049 33 22L42.6196 17.6274C43.5293 17.2139 44.517 17 45.5163 17H57.5C57.5 18.6569 56.1569 20 54.5 20H45.6977C44.5784 20 43.4715 20.2349 42.4486 20.6895Z" fill="#E9EFFF"/>
<path d="M31 22L42.267 17.6665C43.4125 17.2259 44.6294 17 45.8568 17H58M58 17L64 22L63.7575 22.9701C63.3123 24.7508 61.7124 26 59.8769 26H47M58 17H58.7815C60.2427 17 61.6862 17.3202 63.0104 17.9382L76 24L80.8058 23.0388C80.935 23.013 81.0663 23 81.198 23H85L81 26H84V28L81 29L84 32V32.9415C84 34.2333 83.3761 35.4456 82.325 36.1965L77 40V38C77 38 77 30 69 30C61 30 61 38 61 38V39H28V38C28 38 28 30 20 30C12 30 12 38 12 38V39H8L5 37V35C5 35 6.30141 34.8493 7 34.5C8.10457 33.9477 8 32 8 32H5V30C5 30 12.9031 27.4952 18 26C20.7281 25.1997 25 24 25 24L28.875 26L47 26M47 26V22" stroke="#3955FE" stroke-width="2" stroke-linecap="round" stroke-linejoin="round"/>
<rect x="-1" y="1" width="10" height="10" rx="5" transform="matrix(-1 0 0 1 73 32)" stroke="#262425" stroke-width="2"/>
<mask id="path-6-inside-1" fill="white">
<path d="M71 38H67C67 39.1046 67.8954 40 69 40C70.1046 40 71 39.1046 71 38Z"/>
</mask>
<path d="M71 38V36H73V38H71ZM67 38H65V36H67V38ZM69 38H73C73 40.2091 71.2091 42 69 42V38ZM69 38V42C66.7909 42 65 40.2091 65 38H69ZM71 40H67V36H71V40Z" fill="#ADC6FE" mask="url(#path-6-inside-1)"/>
<mask id="path-8-inside-2" fill="white">
<path d="M22 38H18C18 39.1046 18.8954 40 20 40C21.1046 40 22 39.1046 22 38Z"/>
</mask>
<path d="M22 38V36H24V38H22ZM18 38H16V36H18V38ZM20 38H24C24 40.2091 22.2091 42 20 42V38ZM20 38V42C17.7909 42 16 40.2091 16 38H20ZM22 40H18V36H22V40Z" fill="#ADC6FE" mask="url(#path-8-inside-2)"/>
<rect x="-1" y="1" width="10" height="10" rx="5" transform="matrix(-1 0 0 1 24 32)" stroke="#262425" stroke-width="2"/>
</svg>
