<svg width="90" height="60" viewBox="0 0 90 60" fill="none" xmlns="http://www.w3.org/2000/svg">
<path d="M6 43L84 43" stroke="#E9EFFF" stroke-width="2" stroke-linecap="round" stroke-linejoin="round"/>
<path d="M68 23L62 27H22C22 27 32 29 33 36C51 36 52 29 52 29H62C66 29 68 23 68 23Z" fill="#ADC6FE"/>
<path d="M42.3817 20.0789L40.3534 21.4311C38.985 22.3433 37.1629 22.1629 36 21L42.2976 17.064C43.4101 16.3687 44.6956 16 46.0076 16H57.5C57.5 17.6569 56.1569 19 54.5 19H45.9449C44.6767 19 43.4369 19.3754 42.3817 20.0789Z" fill="#E9EFFF"/>
<path d="M30 23L41.8885 17.0557C43.2771 16.3615 44.8082 16 46.3607 16H58M58 16L67 23L64.0667 25.2C63.3743 25.7193 62.5321 26 61.6667 26H59M58 16H58.5C60.1414 16 61.7576 16.404 63.2059 17.1765L76 24H80C80.6295 24 81.2223 24.2964 81.6 24.8L84 28L81 31L84 32V32.9415C84 34.2333 83.3761 35.4456 82.325 36.1965L77 40V38C77 38 77 30 69 30C61 30 61 38 61 38V39H29V38C29 38 29 30 21 30C13 30 13 38 13 38V39H9L6 37V34L8 32L6 31V30C6 30 12.29 27.781 16 27C19.71 26.219 25 26 25 26H47M47 26V20M47 26H59M59 26L58 23" stroke="#3955FE" stroke-width="2" stroke-linecap="round" stroke-linejoin="round"/>
<rect x="-1" y="1" width="10" height="10" rx="5" transform="matrix(-1 0 0 1 73 32)" stroke="#262425" stroke-width="2"/>
<mask id="path-6-inside-1" fill="white">
<path d="M71 38H67C67 39.1046 67.8954 40 69 40C70.1046 40 71 39.1046 71 38Z"/>
</mask>
<path d="M71 38V36H73V38H71ZM67 38H65V36H67V38ZM69 38H73C73 40.2091 71.2091 42 69 42V38ZM69 38V42C66.7909 42 65 40.2091 65 38H69ZM71 40H67V36H71V40Z" fill="#ADC6FE" mask="url(#path-6-inside-1)"/>
<mask id="path-8-inside-2" fill="white">
<path d="M23 38H19C19 39.1046 19.8954 40 21 40C22.1046 40 23 39.1046 23 38Z"/>
</mask>
<path d="M23 38V36H25V38H23ZM19 38H17V36H19V38ZM21 38H25C25 40.2091 23.2091 42 21 42V38ZM21 38V42C18.7909 42 17 40.2091 17 38H21ZM23 40H19V36H23V40Z" fill="#ADC6FE" mask="url(#path-8-inside-2)"/>
<rect x="-1" y="1" width="10" height="10" rx="5" transform="matrix(-1 0 0 1 25 32)" stroke="#262425" stroke-width="2"/>
</svg>
