<svg width="90" height="60" viewBox="0 0 90 60" fill="none" xmlns="http://www.w3.org/2000/svg">
<path d="M80 43H10" stroke="#E9EFFF" stroke-width="2" stroke-linecap="round" stroke-linejoin="round"/>
<path d="M24 27C24 27 34 28 35 35C46 35 48 29 48 29H62C66 29 69 28.5 70 27C71 25.5 70 24 70 24L67 26L53 27L51 20L48 27H24Z" fill="#ADC6FE"/>
<path d="M41.3817 20.0789L39.3534 21.4311C37.985 22.3433 36.1629 22.1629 35 21L41.2976 17.064C42.4101 16.3687 43.6956 16 45.0076 16H62C62 17.6569 60.6569 19 59 19H44.9449C43.6767 19 42.4369 19.3754 41.3817 20.0789Z" fill="#E9EFFF"/>
<path d="M32 23L39.4176 17.8077C41.0984 16.6311 43.1005 16 45.1522 16H52M52 16H63.8579C66.51 16 69.0536 17.0536 70.9289 18.9289L77.0711 25.0711C78.9464 26.9465 80 29.49 80 32.1421V34.9296C80 35.5983 79.6658 36.2228 79.1094 36.5937L77 38C77 38 77 30 69 30C61 30 61 38 61 38H31C31 38 31 30 23 30C15 30 15 38 15 38L11 37L10 33L15 30L11 29L11.0711 28.929C12.9464 27.0536 15.49 26 18.1422 26H48L52 16ZM52 16V26H67.263C68.8604 26 69.8131 24.2197 68.9271 22.8906L67 20" stroke="#3955FE" stroke-width="2" stroke-linecap="round" stroke-linejoin="round"/>
<rect x="-1" y="1" width="10" height="10" rx="5" transform="matrix(-1 0 0 1 73 32)" stroke="#262425" stroke-width="2"/>
<mask id="path-6-inside-1" fill="white">
<path d="M71 38H67C67 39.1046 67.8954 40 69 40C70.1046 40 71 39.1046 71 38Z"/>
</mask>
<path d="M71 38V36H73V38H71ZM67 38H65V36H67V38ZM69 38H73C73 40.2091 71.2091 42 69 42V38ZM69 38V42C66.7909 42 65 40.2091 65 38H69ZM71 40H67V36H71V40Z" fill="#ADC6FE" mask="url(#path-6-inside-1)"/>
<mask id="path-8-inside-2" fill="white">
<path d="M25 38H21C21 39.1046 21.8954 40 23 40C24.1046 40 25 39.1046 25 38Z"/>
</mask>
<path d="M25 38V36H27V38H25ZM21 38H19V36H21V38ZM23 38H27C27 40.2091 25.2091 42 23 42V38ZM23 38V42C20.7909 42 19 40.2091 19 38H23ZM25 40H21V36H25V40Z" fill="#ADC6FE" mask="url(#path-8-inside-2)"/>
<rect x="-1" y="1" width="10" height="10" rx="5" transform="matrix(-1 0 0 1 27 32)" stroke="#262425" stroke-width="2"/>
</svg>
