<svg viewBox="0 0 24 24" fill="none" xmlns="http://www.w3.org/2000/svg">
<path fill-rule="evenodd" clip-rule="evenodd" d="M2.57441 12.7085C2.39492 12.4305 2.25003 12.1898 2.14074 12.001C2.25003 11.8121 2.39492 11.5714 2.57441 11.2935C3.03543 10.5797 3.71817 9.63038 4.60454 8.68492C6.39552 6.77454 8.89951 5.00098 12 5.00098C15.1005 5.00098 17.6045 6.77454 19.3955 8.68492C20.2818 9.63038 20.9646 10.5797 21.4256 11.2935C21.6051 11.5714 21.75 11.8121 21.8593 12.001C21.75 12.1898 21.6051 12.4305 21.4256 12.7085C20.9646 13.4223 20.2818 14.3716 19.3955 15.317C17.6045 17.2274 15.1005 19.001 12 19.001C8.89951 19.001 6.39552 17.2274 4.60454 15.317C3.71817 14.3716 3.03543 13.4223 2.57441 12.7085ZM23.8941 11.5531C23.8943 11.5534 23.8944 11.5538 23 12.001C23.8944 12.4482 23.8943 12.4485 23.8941 12.4489L23.8936 12.4498L23.8925 12.4521L23.889 12.4589L23.8777 12.4812C23.8681 12.4997 23.8546 12.5257 23.8372 12.5585C23.8025 12.6243 23.752 12.7177 23.686 12.835C23.5542 13.0693 23.3601 13.3995 23.1057 13.7935C22.5979 14.5797 21.8432 15.6304 20.8545 16.6849C18.8955 18.7745 15.8995 21.001 12 21.001C8.10049 21.001 5.10448 18.7745 3.14546 16.6849C2.15683 15.6304 1.40207 14.5797 0.894336 13.7935C0.63985 13.3995 0.445792 13.0693 0.313971 12.835C0.248023 12.7177 0.19754 12.6243 0.162753 12.5585C0.145357 12.5257 0.131875 12.4997 0.122338 12.4812L0.11099 12.4589L0.107539 12.4521L0.10637 12.4498L0.105925 12.4489C0.105741 12.4485 0.105573 12.4482 1 12.001C0.105573 11.5538 0.105741 11.5534 0.105925 11.5531L0.10637 11.5522L0.107539 11.5498L0.11099 11.543L0.122338 11.5208C0.131875 11.5023 0.145357 11.4763 0.162753 11.4434C0.19754 11.3777 0.248023 11.2842 0.313971 11.167C0.445792 10.9326 0.63985 10.6025 0.894336 10.2085C1.40207 9.42229 2.15683 8.37157 3.14546 7.31704C5.10448 5.22742 8.10049 3.00098 12 3.00098C15.8995 3.00098 18.8955 5.22742 20.8545 7.31704C21.8432 8.37157 22.5979 9.42229 23.1057 10.2085C23.3601 10.6025 23.5542 10.9326 23.686 11.167C23.752 11.2842 23.8025 11.3777 23.8372 11.4434C23.8546 11.4763 23.8681 11.5023 23.8777 11.5208L23.889 11.543L23.8925 11.5498L23.8936 11.5522L23.8941 11.5531ZM23 12.001L23.8944 11.5538C24.0352 11.8353 24.0352 12.1667 23.8944 12.4482L23 12.001ZM0.105573 11.5538L1 12.001L0.105573 12.4482C-0.0351909 12.1667 -0.0351909 11.8353 0.105573 11.5538ZM10 12.001C10 10.8964 10.8954 10.001 12 10.001C13.1046 10.001 14 10.8964 14 12.001C14 13.1055 13.1046 14.001 12 14.001C10.8954 14.001 10 13.1055 10 12.001ZM12 8.00098C9.79086 8.00098 8 9.79184 8 12.001C8 14.2101 9.79086 16.001 12 16.001C14.2091 16.001 16 14.2101 16 12.001C16 9.79184 14.2091 8.00098 12 8.00098Z" fill="#3955FE"/>
</svg>
