<svg viewBox="0 0 25 24" fill="none" xmlns="http://www.w3.org/2000/svg">
<path fill-rule="evenodd" clip-rule="evenodd" d="M3.5 5.99989C3.50006 5.45222 3.95232 4.99999 4.5 4.99999H20.5C21.0477 4.99999 21.4999 5.45222 21.5 5.99989C21.3091 5.99971 21.1161 6.0541 20.9453 6.16794L12.5 11.7981L4.0547 6.16794C3.88394 6.0541 3.6909 5.99971 3.5 5.99989ZM3.5 8.20184V18C3.5 18.5477 3.95228 19 4.5 19H20.5C21.0477 19 21.5 18.5477 21.5 18V8.20184L13.0547 13.832C12.7188 14.056 12.2812 14.056 11.9453 13.832L3.5 8.20184ZM4.5 2.99999C2.84772 2.99999 1.5 4.34771 1.5 5.99999V18C1.5 19.6523 2.84772 21 4.5 21H20.5C22.1523 21 23.5 19.6523 23.5 18V5.99999C23.5 4.34771 22.1523 2.99999 20.5 2.99999H4.5Z" fill="#18AED6"/>
</svg>
