<svg viewBox="0 0 36 36" fill="none" xmlns="http://www.w3.org/2000/svg">
<path fill-rule="evenodd" clip-rule="evenodd" d="M5.00004 17.1719L5.00006 17.1667L5.00005 16.3906C5.17647 13.4279 6.43283 10.6319 8.53235 8.53235C10.6319 6.43283 13.4279 5.17647 16.3906 5.00005H17.1667H17.1719C19.0567 4.99513 20.916 5.43548 22.5983 6.28524L22.6059 6.28907L22.6059 6.28905C24.6266 7.29898 26.3263 8.85156 27.5145 10.7729C28.7027 12.6942 29.3325 14.9084 29.3333 17.1675L29.3333 17.1719C29.3383 19.0567 28.8979 20.916 28.0481 22.5983C27.8077 23.0743 27.7673 23.6266 27.936 24.1325L29.8377 29.8377L24.1325 27.936C23.6266 27.7673 23.0743 27.8077 22.5983 28.0481C20.916 28.8979 19.0567 29.3383 17.1719 29.3333L17.1675 29.3333C14.9084 29.3325 12.6942 28.7027 10.7729 27.5145C8.85156 26.3263 7.29898 24.6266 6.28905 22.6059L6.28526 22.5983L6.28524 22.5983C5.43548 20.916 4.99513 19.0567 5.00004 17.1719ZM30.6283 32.2094L33 33L32.2094 30.6283L29.8333 23.5C30.8251 21.5365 31.3391 19.3665 31.3333 17.1667C31.3323 14.5363 30.599 11.9581 29.2155 9.72095C27.832 7.48379 25.8529 5.67599 23.5 4.50005C21.5365 3.50827 19.3665 2.99431 17.1667 3.00005H16.3334C12.8595 3.1917 9.5783 4.65798 7.11814 7.11814C4.65798 9.5783 3.1917 12.8595 3.00005 16.3334V17.1667C2.99431 19.3665 3.50826 21.5365 4.50005 23.5C5.67599 25.8529 7.48379 27.832 9.72095 29.2155C11.9581 30.599 14.5363 31.3323 17.1667 31.3333C19.3665 31.3391 21.5365 30.8251 23.5 29.8333L30.6283 32.2094Z" fill="url(#paint0_linear)"/>
<defs>
<linearGradient id="paint0_linear" x1="18" y1="3" x2="18" y2="33" gradientUnits="userSpaceOnUse">
<stop stop-color="#18CED6"/>
<stop offset="1" stop-color="#18AED6"/>
</linearGradient>
</defs>
</svg>
