<svg width="90" height="60" viewBox="0 0 90 60" fill="none" xmlns="http://www.w3.org/2000/svg">
<path d="M6 44L85 44" stroke="#E9EFFF" stroke-width="2" stroke-linecap="round" stroke-linejoin="round"/>
<path d="M41 17L39 22L37 24L16 25L12 27C12 27 31 25 31 37C39 37 38 27 38 27C38 27 39.6676 25.7663 40.5 24C41.5127 21.8512 41 17 41 17Z" fill="#ADC6FE"/>
<path d="M45 17L46.4501 22L48.4501 24L72 25C72 25 72 27 70 27H50C48 27 46.3324 25.7663 45.5 24C45 22.939 45 17 45 17Z" fill="#ADC6FE"/>
<path d="M70 20H46V17H73C73 18.6569 71.6569 20 70 20Z" fill="#E9EFFF"/>
<path d="M25.8895 20.8329L25.2627 21.3029C23.9644 22.2767 22.1476 22.1476 21 21L25.2365 18.1756C26.3864 17.4091 27.7375 17 29.1194 17H37C37 18.6569 35.6569 20 34 20H28.3882C27.4871 20 26.6103 20.2923 25.8895 20.8329Z" fill="#E9EFFF"/>
<path d="M27 17L19 22M27 17L31.05 14.57C31.6716 14.197 32.383 14 33.1079 14H76.7208C78.6275 14 80.2692 15.3458 80.6431 17.2155L82 24H80.2337C78.3475 24 76.7177 22.6824 76.3224 20.8381L75.5 17H46V19.7889C46 20.5786 46.2338 21.3506 46.6718 22.0077L46.8125 22.2188C47.5544 23.3316 48.8033 24 50.1407 24H56M27 17H40V19.7889C40 20.5786 39.7662 21.3506 39.3282 22.0077L39.1262 22.3108C38.4184 23.3725 37.2465 24.0328 35.9717 24.0882L17.1304 24.9074C15.7259 24.9684 14.3501 25.325 13.0927 25.9537L7 29L9 31L6 34V35.2919C6 36.9275 6.9958 38.3983 8.51443 39.0058L11 40V39C11 39 11 31 19 31C27 31 27 39 27 39V40H66V38C66 38 66 31 74 31C82 31 82 38 82 38L84.1094 36.5937C84.6658 36.2228 85 35.5983 85 34.9296V32L84 31L83.3787 28.5149C83.1561 27.6246 82.3562 27 81.4384 27H80M56 24H72M56 24V21" stroke="#3955FE" stroke-width="2" stroke-linecap="round" stroke-linejoin="round"/>
<rect x="-1" y="1" width="10" height="10" rx="5" transform="matrix(-1 0 0 1 78 33)" stroke="#262425" stroke-width="2"/>
<mask id="path-8-inside-1" fill="white">
<path d="M76 39H72C72 40.1046 72.8954 41 74 41C75.1046 41 76 40.1046 76 39Z"/>
</mask>
<path d="M76 39V37H78V39H76ZM72 39H70V37H72V39ZM74 39H78C78 41.2091 76.2091 43 74 43V39ZM74 39V43C71.7909 43 70 41.2091 70 39H74ZM76 41H72V37H76V41Z" fill="#ADC6FE" mask="url(#path-8-inside-1)"/>
<mask id="path-10-inside-2" fill="white">
<path d="M21 39H17C17 40.1046 17.8954 41 19 41C20.1046 41 21 40.1046 21 39Z"/>
</mask>
<path d="M21 39V37H23V39H21ZM17 39H15V37H17V39ZM19 39H23C23 41.2091 21.2091 43 19 43V39ZM19 39V43C16.7909 43 15 41.2091 15 39H19ZM21 41H17V37H21V41Z" fill="#ADC6FE" mask="url(#path-10-inside-2)"/>
<rect x="-1" y="1" width="10" height="10" rx="5" transform="matrix(-1 0 0 1 23 33)" stroke="#262425" stroke-width="2"/>
</svg>
