<svg viewBox="0 0 62 62" fill="none" xmlns="http://www.w3.org/2000/svg">
<path fill-rule="evenodd" clip-rule="evenodd" d="M35.4419 1.60073C32.8599 -0.533575 29.1401 -0.533575 26.5581 1.60073L24.7569 3.08961C23.7084 3.95627 22.3576 4.35557 21.0136 4.19831L18.6999 3.92759C15.3784 3.53894 12.2549 5.56871 11.2299 8.76311L10.5131 10.9974C10.0946 12.3018 9.16971 13.3763 7.95332 13.9772L5.86175 15.0106C2.86345 16.492 1.32612 19.8958 2.17626 23.1394L2.77132 25.4098C3.1188 26.7356 2.9173 28.1465 2.21415 29.3187L1.00876 31.3281C-0.714646 34.201 -0.188468 37.9014 2.27104 40.1713L3.98912 41.7569C4.9898 42.6805 5.57743 43.9758 5.61451 45.347L5.678 47.6945C5.7687 51.0481 8.19595 53.8806 11.4902 54.4509L13.7859 54.8483C15.1196 55.0792 16.3056 55.8465 17.0706 56.9777L18.3828 58.9179C20.2612 61.6953 23.8285 62.7544 26.9057 61.4386L29.05 60.5216C30.2964 59.9886 31.7036 59.9886 32.95 60.5216L35.0944 61.4386C38.1715 62.7544 41.7388 61.6953 43.6172 58.9179L44.9294 56.9777C45.6944 55.8465 46.8805 55.0792 48.2141 54.8483L50.5098 54.4509C53.8041 53.8806 56.2313 51.0481 56.322 47.6945L56.3855 45.347C56.4226 43.9758 57.0102 42.6805 58.0109 41.7569L59.729 40.1713C62.1885 37.9014 62.7147 34.201 60.9913 31.3281L59.7859 29.3187C59.0827 28.1465 58.8812 26.7356 59.2287 25.4098L59.8238 23.1394C60.6739 19.8958 59.1366 16.492 56.1383 15.0106L54.0467 13.9772C52.8303 13.3763 51.9054 12.3018 51.487 10.9974L50.7701 8.76311C49.7452 5.56871 46.6216 3.53894 43.3001 3.92759L40.9864 4.19831C39.6425 4.35557 38.2916 3.95627 37.2431 3.08961L35.4419 1.60073ZM27.8323 3.14226C29.6749 1.61925 32.3252 1.61925 34.1677 3.14226L35.9689 4.63115C37.4364 5.84414 39.331 6.40565 41.2188 6.18476L43.5325 5.91404C45.8944 5.63768 48.1296 7.08006 48.8657 9.37413L49.5826 11.6085C50.1654 13.425 51.4557 14.9279 53.1608 15.7703L55.2523 16.8037C57.3918 17.8608 58.5007 20.2989 57.8891 22.6324L57.294 24.9028C56.8104 26.7482 57.0902 28.7129 58.0708 30.3475L59.2762 32.3569C60.5137 34.4199 60.1333 37.0765 58.3725 38.7016L56.6545 40.2872C55.2554 41.5784 54.4378 43.3852 54.3862 45.2929L54.3227 47.6404C54.2575 50.0531 52.5133 52.0743 50.1686 52.4802L47.873 52.8776C46.0002 53.2019 44.3406 54.2783 43.2727 55.8572L41.9605 57.7974C40.6156 59.786 38.0709 60.5362 35.8807 59.5996L33.7364 58.6827C31.9877 57.9349 30.0123 57.9349 28.2636 58.6827L26.1193 59.5996C23.9291 60.5362 21.3844 59.786 20.0395 57.7974L18.7273 55.8572C17.6594 54.2783 15.9998 53.2019 14.127 52.8776L11.8314 52.4802C9.48673 52.0743 7.74252 50.0531 7.67727 47.6404L7.61378 45.2929C7.56219 43.3852 6.74465 41.5784 5.34555 40.2872L3.62747 38.7016C1.86667 37.0765 1.4863 34.4199 2.72384 32.3569L3.92923 30.3475C4.90977 28.7129 5.18966 26.7482 4.70597 24.9028L4.11091 22.6324C3.49934 20.2989 4.60821 17.8608 6.74767 16.8037L8.83924 15.7703C10.5443 14.9279 11.8346 13.425 12.4174 11.6085L13.1343 9.37413C13.8704 7.08006 16.1057 5.63768 18.4675 5.91404L20.7812 6.18476C22.669 6.40565 24.5636 5.84415 26.0311 4.63115L27.8323 3.14226ZM31 12C20.5066 12 12 20.5066 12 31C12 41.4934 20.5066 50 31 50C34.8619 50 38.4519 48.8489 41.4493 46.8713C41.9103 46.5671 42.5306 46.6943 42.8347 47.1552C43.1389 47.6162 43.0117 48.2365 42.5507 48.5406C39.2365 50.7273 35.2654 52 31 52C19.402 52 10 42.598 10 31C10 19.402 19.402 10 31 10C42.598 10 52 19.402 52 31C52 36.3252 50.0166 41.1895 46.7497 44.8909C46.3843 45.3049 45.7523 45.3443 45.3383 44.9789C44.9242 44.6134 44.8848 43.9815 45.2503 43.5674C48.207 40.2174 50 35.8193 50 31C50 20.5066 41.4934 12 31 12ZM22 22C20.8954 22 20 22.8954 20 24C20 25.1046 20.8954 26 22 26C23.1046 26 24 25.1046 24 24C24 22.8954 23.1046 22 22 22ZM18 24C18 21.7909 19.7909 20 22 20C24.2091 20 26 21.7909 26 24C26 26.2091 24.2091 28 22 28C19.7909 28 18 26.2091 18 24ZM38 38C38 36.8954 38.8954 36 40 36C41.1046 36 42 36.8954 42 38C42 39.1046 41.1046 40 40 40C38.8954 40 38 39.1046 38 38ZM40 34C37.7909 34 36 35.7909 36 38C36 40.2091 37.7909 42 40 42C42.2091 42 44 40.2091 44 38C44 35.7909 42.2091 34 40 34ZM31.4378 22.0982C32.5424 20.185 34.9888 19.5295 36.9019 20.6341C38.8151 21.7386 39.4706 24.185 38.366 26.0982L30.366 39.9546C29.2615 41.8677 26.8151 42.5232 24.9019 41.4187C22.9888 40.3141 22.3333 37.8677 23.4378 35.9546L31.4378 22.0982ZM35.9019 22.3661C34.9453 21.8138 33.7222 22.1416 33.1699 23.0982L25.1699 36.9546C24.6176 37.9112 24.9453 39.1343 25.9019 39.6866C26.8585 40.2389 28.0817 39.9112 28.634 38.9546L36.634 25.0982C37.1863 24.1416 36.8585 22.9184 35.9019 22.3661Z" fill="url(#paint0_linear)"/>
<defs>
<linearGradient id="paint0_linear" x1="31" y1="0" x2="31" y2="62.0002" gradientUnits="userSpaceOnUse">
<stop stop-color="#18CED6"/>
<stop offset="1" stop-color="#18AED6"/>
</linearGradient>
</defs>
</svg>
