<svg xmlns="http://www.w3.org/2000/svg" width="100" height="29" viewBox="0 0 100 29" fill="none">
    <mask id="path-1-inside-1" fill="white">
        <path d="M63.2317 0.686712C65.2635 0.872619 68.3112 1.40555 70.2935 1.9137C74.9766 3.1159 81.9268 5.35918 85.532 6.83404L87.5143 7.63964L89.7939 7.50331C91.0451 7.41655 92.0982 7.37937 92.123 7.41655C92.2717 7.56528 91.6027 7.7264 90.3761 7.85034C88.8771 7.99906 88.5426 8.11061 89.5708 8.11061C91.2558 8.11061 94.4521 8.81705 95.7406 9.46153C96.9671 10.0936 97.0414 10.3415 96.6202 12.6467C96.2857 14.5182 96.1742 15.8567 96.36 15.9683C96.4344 16.0179 96.868 16.117 97.314 16.179C98.3795 16.3277 99.0113 16.6623 99.2715 17.2201C99.6803 18.0752 99.6555 19.8723 99.2095 22.0165C99.0609 22.6733 98.9617 22.7353 97.4503 22.9832C96.9299 23.0575 96.3105 23.2806 95.8149 23.5533C95.1831 23.9003 94.8486 23.9995 94.1176 24.049C93.6221 24.0862 92.8663 24.1978 92.4575 24.2969C92.0363 24.3961 90.8965 24.52 89.9301 24.582C88.9514 24.6439 88.1213 24.7555 88.0842 24.8175C88.047 24.8918 87.3656 24.991 86.5975 25.0405L85.1851 25.1273L85.2719 24.8299C85.9656 22.3511 85.3338 19.8723 83.5622 18.1744C81.3074 16.0055 78.0243 15.7204 75.3978 17.4555C73.2049 18.918 72.1023 21.8306 72.7713 24.4085C72.8828 24.8051 72.9447 25.2017 72.9076 25.2884C72.7961 25.5859 71.5696 25.8833 70.6032 25.8585C70.0953 25.8461 64.768 25.7966 58.7717 25.7594C46.5189 25.685 29.2238 25.8833 29.0875 26.1064C29.038 26.1932 28.6787 26.218 28.084 26.1808C27.3902 26.1312 27.0062 26.0321 26.523 25.7718C26.1637 25.5859 25.8788 25.3752 25.8788 25.3256C25.8788 25.276 25.9655 24.9042 26.0646 24.5076C26.3 23.6153 26.3 22.128 26.0646 21.2604C25.4699 19.0048 23.5001 17.0589 21.2948 16.5508C20.4524 16.3525 18.8294 16.3897 18.0613 16.6128C16.3516 17.1209 14.7658 18.3975 14.0101 19.8847C13.7871 20.3309 13.5145 21.1489 13.403 21.7066C13.2172 22.5742 13.2048 22.8592 13.3411 23.7268C13.4154 24.2721 13.5888 24.9662 13.7251 25.2636L13.9605 25.809L13.3906 25.9081C12.4986 26.0444 5.89524 26.0568 5.7094 25.9205C5.62268 25.8461 5.56074 25.5115 5.56074 25.0901V24.3837L4.34661 24.2969C3.09532 24.2102 1.76969 23.9623 1.59624 23.7764C1.54668 23.7144 1.47235 23.0823 1.43518 22.3635C1.37324 21.0745 1.37324 21.0745 1.55907 21.6446C1.65819 21.9793 1.78208 22.2395 1.84402 22.2395C2.02986 22.2395 2.22808 21.7562 2.19091 21.3968C2.16614 21.1241 2.07941 21.0497 1.76969 21.025C1.16262 20.963 0.592728 20.083 0.518394 19.0791C0.43167 18.0752 0.617506 17.8645 1.80685 17.6538C2.63692 17.5051 2.68648 17.4803 3.02098 16.935C3.7891 15.7328 5.52357 14.3323 7.20848 13.5639C9.37656 12.5848 13.1428 11.5313 17.194 10.7753C21.6541 9.94489 27.2787 9.10211 28.4061 9.10211C28.9513 9.08972 29.2362 8.97817 30.5866 8.22215C33.6095 6.5118 38.4537 4.23134 42.1704 2.76887C43.1863 2.35988 44.165 1.96328 44.3384 1.88891C44.9331 1.61625 47.9437 1.08332 50.2232 0.847833C52.4657 0.624744 61.4105 0.513199 63.2317 0.686712ZM67.6298 1.78976C67.4564 2.1244 67.5431 2.23594 68.0263 2.33509C69.5997 2.64494 76.6739 5.19806 80.2667 6.75968C83.6365 8.20976 83.3763 8.13539 84.8506 8.08582C85.5692 8.06103 86.3125 7.96188 86.5231 7.87512L86.8948 7.714L86.424 7.47852C85.1851 6.83404 77.8508 4.24374 74.3199 3.19026C72.2634 2.58297 68.3236 1.56667 67.9767 1.55428C67.8529 1.54189 67.7042 1.65343 67.6298 1.78976ZM51.8338 2.17397C47.7826 2.55818 43.6694 3.98347 39.8784 6.33829L38.7014 7.06953L38.6643 9.07732L38.6395 11.0851H38.974C40.4731 11.0727 48.0552 10.7877 52.2427 10.5894C55.055 10.453 57.8549 10.3415 58.462 10.3415C59.4035 10.3415 59.5646 10.3043 59.6265 10.1184C59.6637 10.0069 60.0354 8.28412 60.4442 6.3135C60.8654 4.33049 61.2247 2.62015 61.2619 2.5086C61.3486 2.23594 61.0017 2.17397 58.5239 2.03764C56.3558 1.92609 53.94 1.97567 51.8338 2.17397ZM42.827 2.83084C37.4873 4.99976 32.9901 7.13149 29.2981 9.27562C28.1212 9.95728 28.1955 10.0316 30.0291 9.94489C31.5406 9.88292 31.6273 9.83334 34.675 7.96188C37.2395 6.40026 40.089 4.82625 42.6907 3.54968C43.9544 2.94239 44.834 2.43424 44.834 2.33509C44.834 2.06243 44.5862 2.1244 42.827 2.83084ZM62.3273 6.25153C61.9061 8.25933 61.5592 9.98207 61.5592 10.0812C61.5592 10.2299 61.8813 10.2423 63.5043 10.168C65.7095 10.0688 70.5041 9.68462 72.8332 9.41195C73.6881 9.3128 74.4438 9.22605 74.5305 9.22605C74.6049 9.22605 74.8774 8.60636 75.1252 7.86273C75.7818 5.89211 75.8562 5.97887 72.2138 4.78906C68.7201 3.66123 63.3556 2.3103 63.1574 2.521C63.1202 2.55818 62.7362 4.24374 62.3273 6.25153ZM35.8148 8.07342C35.3688 8.39566 34.898 9.36238 34.8237 10.0936C34.7741 10.6265 34.7989 10.7133 35.0962 10.8992C35.3812 11.0851 35.6289 11.1099 36.7316 11.0479C37.4749 11.0108 38.1068 10.924 38.2059 10.8372C38.4784 10.6018 38.466 8.39566 38.1935 7.99906C37.9953 7.7264 37.9209 7.714 37.0661 7.76358C36.4218 7.81315 36.0502 7.89991 35.8148 8.07342ZM95.6415 11.7544C94.9353 12.7211 94.7742 13.1797 94.7619 14.2331C94.7619 15.0759 94.7742 15.0883 95.2822 15.5965L95.8149 16.1046L95.8893 14.9272C95.9388 14.2827 96.0503 13.2416 96.1618 12.6343C96.4715 10.7877 96.4963 10.4902 96.3353 10.7629C96.2485 10.8868 95.9388 11.333 95.6415 11.7544ZM56.0213 12.2377C55.439 12.5476 55.3151 12.845 55.6125 13.2292C55.947 13.6506 56.7894 13.8613 57.8921 13.787C59.7132 13.663 60.246 12.6715 58.7717 12.1262C58.1275 11.8907 56.5664 11.9527 56.0213 12.2377ZM6.98548 15.3238C6.40319 15.5097 5.01562 16.7739 4.84217 17.2696C4.64395 17.8274 4.805 17.9513 5.63507 17.8521C8.15005 17.5671 10.4544 16.873 10.7394 16.3153C10.8756 16.0798 10.7517 15.6708 10.504 15.4601C9.99601 15.0511 8.06332 14.9644 6.98548 15.3238ZM3.6776 16.3773C3.50415 16.5756 3.26876 16.873 3.14487 17.0589C2.93426 17.3936 2.93426 17.406 3.15726 17.406C3.71477 17.406 4.40855 17.0961 4.78023 16.6995C5.00323 16.464 5.18906 16.2162 5.18906 16.1542C5.18906 16.0922 4.9165 16.0426 4.59439 16.0426C4.09883 16.0426 3.93777 16.1046 3.6776 16.3773ZM97.6733 18.3975C97.3512 18.7445 97.3512 19.7856 97.6733 20.1326C98.1688 20.6779 98.7264 20.2318 98.7264 19.265C98.7264 18.2983 98.1688 17.8521 97.6733 18.3975ZM3.60327 20.3681C3.54132 21.0373 3.75193 21.7438 4.0121 21.7438C4.582 21.7438 4.74306 20.083 4.23511 19.5625C3.93777 19.2774 3.6776 19.5997 3.60327 20.3681ZM8.18721 20.4053C8.15005 20.6036 8.26155 20.6284 9.14117 20.6284C9.8969 20.6284 10.1447 20.5912 10.1447 20.4672C10.1447 20.1698 9.98362 20.1202 9.104 20.1574C8.38544 20.1822 8.22438 20.2317 8.18721 20.4053Z"/>
    </mask>
    <path d="M63.2317 0.686712C65.2635 0.872619 68.3112 1.40555 70.2935 1.9137C74.9766 3.1159 81.9268 5.35918 85.532 6.83404L87.5143 7.63964L89.7939 7.50331C91.0451 7.41655 92.0982 7.37937 92.123 7.41655C92.2717 7.56528 91.6027 7.7264 90.3761 7.85034C88.8771 7.99906 88.5426 8.11061 89.5708 8.11061C91.2558 8.11061 94.4521 8.81705 95.7406 9.46153C96.9671 10.0936 97.0414 10.3415 96.6202 12.6467C96.2857 14.5182 96.1742 15.8567 96.36 15.9683C96.4344 16.0179 96.868 16.117 97.314 16.179C98.3795 16.3277 99.0113 16.6623 99.2715 17.2201C99.6803 18.0752 99.6555 19.8723 99.2095 22.0165C99.0609 22.6733 98.9617 22.7353 97.4503 22.9832C96.9299 23.0575 96.3105 23.2806 95.8149 23.5533C95.1831 23.9003 94.8486 23.9995 94.1176 24.049C93.6221 24.0862 92.8663 24.1978 92.4575 24.2969C92.0363 24.3961 90.8965 24.52 89.9301 24.582C88.9514 24.6439 88.1213 24.7555 88.0842 24.8175C88.047 24.8918 87.3656 24.991 86.5975 25.0405L85.1851 25.1273L85.2719 24.8299C85.9656 22.3511 85.3338 19.8723 83.5622 18.1744C81.3074 16.0055 78.0243 15.7204 75.3978 17.4555C73.2049 18.918 72.1023 21.8306 72.7713 24.4085C72.8828 24.8051 72.9447 25.2017 72.9076 25.2884C72.7961 25.5859 71.5696 25.8833 70.6032 25.8585C70.0953 25.8461 64.768 25.7966 58.7717 25.7594C46.5189 25.685 29.2238 25.8833 29.0875 26.1064C29.038 26.1932 28.6787 26.218 28.084 26.1808C27.3902 26.1312 27.0062 26.0321 26.523 25.7718C26.1637 25.5859 25.8788 25.3752 25.8788 25.3256C25.8788 25.276 25.9655 24.9042 26.0646 24.5076C26.3 23.6153 26.3 22.128 26.0646 21.2604C25.4699 19.0048 23.5001 17.0589 21.2948 16.5508C20.4524 16.3525 18.8294 16.3897 18.0613 16.6128C16.3516 17.1209 14.7658 18.3975 14.0101 19.8847C13.7871 20.3309 13.5145 21.1489 13.403 21.7066C13.2172 22.5742 13.2048 22.8592 13.3411 23.7268C13.4154 24.2721 13.5888 24.9662 13.7251 25.2636L13.9605 25.809L13.3906 25.9081C12.4986 26.0444 5.89524 26.0568 5.7094 25.9205C5.62268 25.8461 5.56074 25.5115 5.56074 25.0901V24.3837L4.34661 24.2969C3.09532 24.2102 1.76969 23.9623 1.59624 23.7764C1.54668 23.7144 1.47235 23.0823 1.43518 22.3635C1.37324 21.0745 1.37324 21.0745 1.55907 21.6446C1.65819 21.9793 1.78208 22.2395 1.84402 22.2395C2.02986 22.2395 2.22808 21.7562 2.19091 21.3968C2.16614 21.1241 2.07941 21.0497 1.76969 21.025C1.16262 20.963 0.592728 20.083 0.518394 19.0791C0.43167 18.0752 0.617506 17.8645 1.80685 17.6538C2.63692 17.5051 2.68648 17.4803 3.02098 16.935C3.7891 15.7328 5.52357 14.3323 7.20848 13.5639C9.37656 12.5848 13.1428 11.5313 17.194 10.7753C21.6541 9.94489 27.2787 9.10211 28.4061 9.10211C28.9513 9.08972 29.2362 8.97817 30.5866 8.22215C33.6095 6.5118 38.4537 4.23134 42.1704 2.76887C43.1863 2.35988 44.165 1.96328 44.3384 1.88891C44.9331 1.61625 47.9437 1.08332 50.2232 0.847833C52.4657 0.624744 61.4105 0.513199 63.2317 0.686712ZM67.6298 1.78976C67.4564 2.1244 67.5431 2.23594 68.0263 2.33509C69.5997 2.64494 76.6739 5.19806 80.2667 6.75968C83.6365 8.20976 83.3763 8.13539 84.8506 8.08582C85.5692 8.06103 86.3125 7.96188 86.5231 7.87512L86.8948 7.714L86.424 7.47852C85.1851 6.83404 77.8508 4.24374 74.3199 3.19026C72.2634 2.58297 68.3236 1.56667 67.9767 1.55428C67.8529 1.54189 67.7042 1.65343 67.6298 1.78976ZM51.8338 2.17397C47.7826 2.55818 43.6694 3.98347 39.8784 6.33829L38.7014 7.06953L38.6643 9.07732L38.6395 11.0851H38.974C40.4731 11.0727 48.0552 10.7877 52.2427 10.5894C55.055 10.453 57.8549 10.3415 58.462 10.3415C59.4035 10.3415 59.5646 10.3043 59.6265 10.1184C59.6637 10.0069 60.0354 8.28412 60.4442 6.3135C60.8654 4.33049 61.2247 2.62015 61.2619 2.5086C61.3486 2.23594 61.0017 2.17397 58.5239 2.03764C56.3558 1.92609 53.94 1.97567 51.8338 2.17397ZM42.827 2.83084C37.4873 4.99976 32.9901 7.13149 29.2981 9.27562C28.1212 9.95728 28.1955 10.0316 30.0291 9.94489C31.5406 9.88292 31.6273 9.83334 34.675 7.96188C37.2395 6.40026 40.089 4.82625 42.6907 3.54968C43.9544 2.94239 44.834 2.43424 44.834 2.33509C44.834 2.06243 44.5862 2.1244 42.827 2.83084ZM62.3273 6.25153C61.9061 8.25933 61.5592 9.98207 61.5592 10.0812C61.5592 10.2299 61.8813 10.2423 63.5043 10.168C65.7095 10.0688 70.5041 9.68462 72.8332 9.41195C73.6881 9.3128 74.4438 9.22605 74.5305 9.22605C74.6049 9.22605 74.8774 8.60636 75.1252 7.86273C75.7818 5.89211 75.8562 5.97887 72.2138 4.78906C68.7201 3.66123 63.3556 2.3103 63.1574 2.521C63.1202 2.55818 62.7362 4.24374 62.3273 6.25153ZM35.8148 8.07342C35.3688 8.39566 34.898 9.36238 34.8237 10.0936C34.7741 10.6265 34.7989 10.7133 35.0962 10.8992C35.3812 11.0851 35.6289 11.1099 36.7316 11.0479C37.4749 11.0108 38.1068 10.924 38.2059 10.8372C38.4784 10.6018 38.466 8.39566 38.1935 7.99906C37.9953 7.7264 37.9209 7.714 37.0661 7.76358C36.4218 7.81315 36.0502 7.89991 35.8148 8.07342ZM95.6415 11.7544C94.9353 12.7211 94.7742 13.1797 94.7619 14.2331C94.7619 15.0759 94.7742 15.0883 95.2822 15.5965L95.8149 16.1046L95.8893 14.9272C95.9388 14.2827 96.0503 13.2416 96.1618 12.6343C96.4715 10.7877 96.4963 10.4902 96.3353 10.7629C96.2485 10.8868 95.9388 11.333 95.6415 11.7544ZM56.0213 12.2377C55.439 12.5476 55.3151 12.845 55.6125 13.2292C55.947 13.6506 56.7894 13.8613 57.8921 13.787C59.7132 13.663 60.246 12.6715 58.7717 12.1262C58.1275 11.8907 56.5664 11.9527 56.0213 12.2377ZM6.98548 15.3238C6.40319 15.5097 5.01562 16.7739 4.84217 17.2696C4.64395 17.8274 4.805 17.9513 5.63507 17.8521C8.15005 17.5671 10.4544 16.873 10.7394 16.3153C10.8756 16.0798 10.7517 15.6708 10.504 15.4601C9.99601 15.0511 8.06332 14.9644 6.98548 15.3238ZM3.6776 16.3773C3.50415 16.5756 3.26876 16.873 3.14487 17.0589C2.93426 17.3936 2.93426 17.406 3.15726 17.406C3.71477 17.406 4.40855 17.0961 4.78023 16.6995C5.00323 16.464 5.18906 16.2162 5.18906 16.1542C5.18906 16.0922 4.9165 16.0426 4.59439 16.0426C4.09883 16.0426 3.93777 16.1046 3.6776 16.3773ZM97.6733 18.3975C97.3512 18.7445 97.3512 19.7856 97.6733 20.1326C98.1688 20.6779 98.7264 20.2318 98.7264 19.265C98.7264 18.2983 98.1688 17.8521 97.6733 18.3975ZM3.60327 20.3681C3.54132 21.0373 3.75193 21.7438 4.0121 21.7438C4.582 21.7438 4.74306 20.083 4.23511 19.5625C3.93777 19.2774 3.6776 19.5997 3.60327 20.3681ZM8.18721 20.4053C8.15005 20.6036 8.26155 20.6284 9.14117 20.6284C9.8969 20.6284 10.1447 20.5912 10.1447 20.4672C10.1447 20.1698 9.98362 20.1202 9.104 20.1574C8.38544 20.1822 8.22438 20.2317 8.18721 20.4053Z" stroke="#F3BB7A" stroke-width="4" mask="url(#path-1-inside-1)"/>
    <path d="M56.4749 12.4085C56.4581 12.3989 56.4516 12.3938 56.4525 12.3936C56.4535 12.3935 56.4619 12.3983 56.4749 12.4085Z" stroke="#F3BB7A" stroke-width="2"/>
    <mask id="path-3-inside-2" fill="white">
        <path d="M80.1428 16.9226C81.8648 17.2076 83.6117 18.5338 84.417 20.1822C86.6594 24.7927 82.4967 29.8741 77.5287 28.5852C74.1836 27.7052 72.2633 24.0366 73.4651 20.7895C73.812 19.8599 74.4686 18.8808 75.1128 18.3231C75.819 17.7034 77.1942 17.0713 78.1605 16.9102C79.0649 16.7739 79.1888 16.7739 80.1428 16.9226ZM77.7517 18.7693C76.711 19.0915 75.7199 19.9591 75.2243 20.9754C74.9146 21.5951 74.8774 21.8181 74.8774 22.8592C74.8774 23.9623 74.9022 24.0862 75.2987 24.8175C76.0668 26.2303 77.219 26.9616 78.8419 27.0483C80.1552 27.1103 81.0472 26.7881 81.964 25.9205C82.9303 25.0158 83.2896 24.1854 83.302 22.8592C83.302 21.9793 83.2524 21.6942 82.9799 21.1241C82.3976 19.8723 81.4188 19.0295 80.1552 18.6949C79.3251 18.4718 78.6561 18.4842 77.7517 18.7693Z"/>
    </mask>
    <path d="M80.1428 16.9226L80.4694 14.9494L80.4601 14.9479L80.4509 14.9465L80.1428 16.9226ZM84.417 20.1822L86.2155 19.3074L86.214 19.3043L84.417 20.1822ZM77.5287 28.5852L77.0199 30.5194L77.0264 30.5211L77.5287 28.5852ZM73.4651 20.7895L71.5913 20.0902L71.5894 20.0953L73.4651 20.7895ZM75.1128 18.3231L76.4219 19.8352L76.432 19.8264L75.1128 18.3231ZM78.1605 16.9102L77.8624 14.9325L77.847 14.9349L77.8316 14.9374L78.1605 16.9102ZM77.7517 18.7693L78.3433 20.6798L78.3529 20.6768L77.7517 18.7693ZM75.2243 20.9754L77.0133 21.8695L77.0177 21.8608L77.022 21.8519L75.2243 20.9754ZM75.2987 24.8175L73.5404 25.7707L73.5415 25.7727L75.2987 24.8175ZM78.8419 27.0483L78.7352 29.0455L78.7476 29.0461L78.8419 27.0483ZM81.964 25.9205L80.597 24.4605L80.5893 24.4678L81.964 25.9205ZM83.302 22.8592L85.3019 22.8779L85.302 22.8686V22.8592H83.302ZM82.9799 21.1241L81.1665 21.9676L81.1709 21.9772L81.1755 21.9867L82.9799 21.1241ZM80.1552 18.6949L79.6361 20.6264L79.6432 20.6283L80.1552 18.6949ZM79.8162 18.8957C80.8685 19.0699 82.0845 19.9641 82.62 21.0601L86.214 19.3043C85.1389 17.1035 82.8612 15.3454 80.4694 14.9494L79.8162 18.8957ZM82.6184 21.0569C84.1128 24.1294 81.3504 27.5105 78.031 26.6493L77.0264 30.5211C83.643 32.2378 89.206 25.4559 86.2155 19.3074L82.6184 21.0569ZM78.0375 26.651C75.8291 26.07 74.5511 23.6173 75.3407 21.4836L71.5894 20.0953C69.9756 24.456 72.5382 29.3404 77.0199 30.5194L78.0375 26.651ZM75.3388 21.4887C75.5862 20.8259 76.0666 20.1427 76.4219 19.8352L73.8038 16.811C72.8706 17.6189 72.0377 18.894 71.5913 20.0902L75.3388 21.4887ZM76.432 19.8264C76.5906 19.6872 76.9261 19.4692 77.3785 19.26C77.8255 19.0533 78.2351 18.9254 78.4894 18.883L77.8316 14.9374C77.1196 15.0561 76.3584 15.3248 75.6998 15.6293C75.0464 15.9314 74.3412 16.3393 73.7937 16.8198L76.432 19.8264ZM78.4586 18.8879C78.9306 18.8167 79.0376 18.809 79.1213 18.8095C79.2114 18.81 79.335 18.8208 79.8347 18.8987L80.4509 14.9465C79.9965 14.8756 79.5812 14.8121 79.1448 14.8095C78.702 14.8069 78.2949 14.8673 77.8624 14.9325L78.4586 18.8879ZM77.1601 16.8588C75.5663 17.3523 74.1522 18.6108 73.4266 20.0988L77.022 21.8519C77.2875 21.3074 77.8557 20.8307 78.3433 20.6798L77.1601 16.8588ZM73.4353 20.0812C73.2505 20.4509 73.0656 20.8605 72.9671 21.4006C72.8818 21.8688 72.8774 22.3615 72.8774 22.8592H76.8774C76.8774 22.6041 76.8799 22.4342 76.8859 22.3068C76.8917 22.1834 76.8995 22.1332 76.9023 22.1179C76.9033 22.1122 76.9033 22.1104 76.91 22.0925C76.9216 22.0619 76.9471 22.002 77.0133 21.8695L73.4353 20.0812ZM72.8774 22.8592C72.8774 23.3546 72.8749 23.8887 72.9837 24.3967C73.1067 24.9708 73.3469 25.4138 73.5404 25.7707L77.0569 23.8642C76.8539 23.4899 76.8835 23.5053 76.895 23.5589C76.8981 23.5731 76.8908 23.5487 76.8852 23.4322C76.8793 23.308 76.8774 23.1382 76.8774 22.8592H72.8774ZM73.5415 25.7727C74.0603 26.727 74.7598 27.5396 75.6826 28.1217C76.6052 28.7038 77.6428 28.9871 78.7352 29.0455L78.9487 25.0512C78.4181 25.0228 78.0681 24.8971 77.8168 24.7387C77.5657 24.5803 77.3051 24.3208 77.0558 23.8622L73.5415 25.7727ZM78.7476 29.0461C79.591 29.0859 80.4187 29.0075 81.2311 28.714C82.0481 28.4189 82.7293 27.9498 83.3386 27.3732L80.5893 24.4678C80.2818 24.7588 80.0586 24.8846 79.8721 24.952C79.681 25.021 79.406 25.0727 78.9362 25.0506L78.7476 29.0461ZM83.3309 27.3805C83.9491 26.8017 84.4727 26.1527 84.8239 25.3474C85.1746 24.5435 85.294 23.7196 85.3019 22.8779L81.3021 22.8405C81.2975 23.325 81.2312 23.5794 81.1575 23.7483C81.0844 23.916 80.9452 24.1346 80.597 24.4605L83.3309 27.3805ZM85.302 22.8592C85.302 22.4101 85.2923 21.9602 85.2101 21.5136C85.1195 21.0209 84.9603 20.6297 84.7843 20.2615L81.1755 21.9867C81.272 22.1886 81.2739 22.2249 81.2761 22.2374C81.2869 22.2958 81.302 22.4284 81.302 22.8592H85.302ZM84.7933 20.2806C83.9772 18.5263 82.5422 17.2581 80.6671 16.7615L79.6432 20.6283C80.2955 20.801 80.8179 21.2184 81.1665 21.9676L84.7933 20.2806ZM80.6743 16.7634C79.458 16.4366 78.4001 16.4679 77.1505 16.8618L78.3529 20.6768C78.9121 20.5005 79.1922 20.5071 79.6361 20.6264L80.6743 16.7634Z" fill="#F3BB7A" mask="url(#path-3-inside-2)"/>
    <mask id="path-5-inside-3" fill="white">
        <path d="M80.1428 19.0048C81.2702 19.3518 82.4472 20.4424 82.794 21.4587C83.0666 22.2643 83.0418 23.4417 82.7445 24.2597C82.187 25.7346 80.7375 26.7509 79.1641 26.7509C77.9375 26.7633 77.1323 26.4287 76.2898 25.5983C73.812 23.1071 75.5712 18.856 79.0649 18.9056C79.4862 18.9056 79.9693 18.9552 80.1428 19.0048ZM79.5233 19.798C79.5233 20.3309 79.8702 20.963 80.3286 21.248C80.849 21.5703 81.7038 21.5703 82.1126 21.2604L82.41 21.0373L82.1374 20.5788C81.7781 20.0087 81.1959 19.5625 80.4277 19.265C79.8826 19.0543 79.8207 19.0543 79.672 19.2402C79.5977 19.3518 79.5233 19.5997 79.5233 19.798ZM77.7022 19.2898C77.0331 19.5873 76.4385 20.0334 76.1164 20.5044C75.7447 21.0497 75.7819 21.1985 76.3765 21.4463C77.6154 21.9669 79.1269 20.5044 78.5322 19.3766C78.3835 19.1039 78.1853 19.0791 77.7022 19.2898ZM79.672 21.7562C79.6968 21.8305 79.7711 21.8801 79.8331 21.8801C79.895 21.8801 79.9693 21.8305 79.9941 21.7562C80.0189 21.6818 79.9446 21.6199 79.8331 21.6199C79.7216 21.6199 79.6472 21.6818 79.672 21.7562ZM78.1853 21.7562C78.2101 21.8305 78.2844 21.8801 78.3464 21.8801C78.4083 21.8801 78.4827 21.8305 78.5074 21.7562C78.5322 21.6818 78.4579 21.6199 78.3464 21.6199C78.2349 21.6199 78.1605 21.6818 78.1853 21.7562ZM78.5942 22.3635C78.1358 22.8716 78.6933 23.6276 79.3251 23.3302C79.4986 23.2558 79.6472 23.1443 79.6472 23.0947C79.6472 23.0451 79.6844 22.9212 79.7216 22.8221C79.8083 22.5866 79.3623 22.1156 79.0526 22.1156C78.9163 22.1156 78.7181 22.2271 78.5942 22.3635ZM81.6914 22.4874C80.9357 22.9584 80.6631 24.049 81.1215 24.8051C81.4313 25.3008 81.8277 25.4371 82.0755 25.1273C82.5339 24.5572 82.7817 23.8755 82.8436 23.0699L82.9055 22.2395H82.4967C82.2737 22.2395 81.9144 22.3511 81.6914 22.4874ZM75.5093 22.3139C75.0881 22.475 75.3358 23.9003 75.9553 24.867C76.2774 25.3876 76.3517 25.4371 76.5995 25.3256C77.2809 25.0158 77.5163 23.7764 77.0455 23.008C76.711 22.4626 75.9801 22.128 75.5093 22.3139ZM80.118 23.1691C80.118 23.231 80.18 23.3054 80.2543 23.3302C80.3286 23.355 80.3906 23.2806 80.3906 23.1691C80.3906 23.0575 80.3286 22.9832 80.2543 23.008C80.18 23.0327 80.118 23.1071 80.118 23.1691ZM77.7641 23.1691C77.7641 23.231 77.826 23.3054 77.9004 23.3302C77.9747 23.355 78.0367 23.2806 78.0367 23.1691C78.0367 23.0575 77.9747 22.9832 77.9004 23.008C77.826 23.0327 77.7641 23.1071 77.7641 23.1691ZM78.9039 24.049C78.9039 24.2597 79.1764 24.2226 79.2508 23.9995C79.2756 23.9127 79.2136 23.8507 79.1021 23.8507C78.9906 23.8507 78.9039 23.9375 78.9039 24.049ZM78.4827 24.8918C77.9871 25.1025 77.5163 25.6726 77.5659 26.0073C77.6154 26.3295 78.2349 26.565 79.0773 26.565C79.7835 26.5774 80.6384 26.3543 80.7251 26.1312C80.8366 25.8214 80.3782 25.1893 79.8578 24.9538C79.2384 24.6811 79.0278 24.6687 78.4827 24.8918Z"/>
    </mask>
    <path d="M80.1428 19.0048L80.7312 17.0933L80.7119 17.0873L80.6924 17.0818L80.1428 19.0048ZM82.794 21.4587L84.6886 20.8178L84.6868 20.8127L82.794 21.4587ZM82.7445 24.2597L84.6153 24.9669L84.6198 24.955L84.6242 24.943L82.7445 24.2597ZM79.1641 26.7509V24.7509H79.154L79.1438 24.751L79.1641 26.7509ZM76.2898 25.5983L74.8718 27.0087L74.8788 27.0157L74.8858 27.0226L76.2898 25.5983ZM79.0649 18.9056L79.0366 20.9054L79.0508 20.9056H79.0649V18.9056ZM80.3286 21.248L79.2725 22.9464L79.2756 22.9484L80.3286 21.248ZM82.1126 21.2604L80.9123 19.6606L80.9046 19.6665L82.1126 21.2604ZM82.41 21.0373L83.6103 22.6371L85.0468 21.5593L84.1292 20.0155L82.41 21.0373ZM82.1374 20.5788L83.8567 19.5569L83.8434 19.5345L83.8295 19.5125L82.1374 20.5788ZM80.4277 19.265L81.15 17.4L81.1488 17.3995L80.4277 19.265ZM79.672 19.2402L78.11 17.9911L78.0558 18.0589L78.0077 18.1311L79.672 19.2402ZM77.7022 19.2898L76.9027 17.4565L76.8962 17.4594L76.8896 17.4623L77.7022 19.2898ZM76.1164 20.5044L74.4655 19.3753L74.4637 19.378L76.1164 20.5044ZM76.3765 21.4463L77.1512 19.6025L77.146 19.6003L76.3765 21.4463ZM78.5322 19.3766L80.3014 18.4438L80.2948 18.4314L80.2882 18.4191L78.5322 19.3766ZM78.5942 22.3635L77.114 21.0184L77.1091 21.0238L78.5942 22.3635ZM79.3251 23.3302L78.537 21.492L78.5049 21.5058L78.4733 21.5207L79.3251 23.3302ZM79.7216 22.8221L81.5943 23.5241L81.5983 23.5132L79.7216 22.8221ZM81.6914 22.4874L80.6482 20.781L80.6409 20.7855L80.6336 20.79L81.6914 22.4874ZM81.1215 24.8051L79.4113 25.842L79.4183 25.8534L79.4253 25.8648L81.1215 24.8051ZM82.0755 25.1273L80.5168 23.8741L80.5135 23.8782L82.0755 25.1273ZM82.8436 23.0699L84.8377 23.2233L84.8381 23.2187L82.8436 23.0699ZM82.9055 22.2395L84.9 22.3883L85.0603 20.2395H82.9055V22.2395ZM75.5093 22.3139L76.2238 24.1819L76.2339 24.1781L76.2439 24.1741L75.5093 22.3139ZM75.9553 24.867L77.656 23.8146L77.6477 23.8012L77.6392 23.788L75.9553 24.867ZM76.5995 25.3256L77.4205 27.1493L77.4274 27.1462L76.5995 25.3256ZM77.0455 23.008L78.7509 21.9631L78.7504 21.9622L77.0455 23.008ZM79.2508 23.9995L81.1482 24.6317L81.162 24.5905L81.1739 24.5487L79.2508 23.9995ZM78.4827 24.8918L77.7251 23.0408L77.7126 23.046L77.7001 23.0513L78.4827 24.8918ZM77.5659 26.0073L75.5874 26.3003L75.5891 26.3113L77.5659 26.0073ZM79.0773 26.565L79.1124 24.5653L79.0949 24.565H79.0773V26.565ZM80.7251 26.1312L82.5892 26.8558L82.5984 26.8322L82.6069 26.8084L80.7251 26.1312ZM79.8578 24.9538L80.6824 23.1317L80.673 23.1274L80.6636 23.1233L79.8578 24.9538ZM79.5544 20.9162C79.772 20.9832 80.0935 21.1624 80.4023 21.4483C80.7196 21.7421 80.8661 22.0017 80.9013 22.1048L84.6868 20.8127C84.3751 19.8995 83.7596 19.1056 83.1199 18.5132C82.4717 17.913 81.641 17.3733 80.7312 17.0933L79.5544 20.9162ZM80.8995 22.0997C81.0198 22.4552 81.0143 23.1653 80.8648 23.5765L84.6242 24.943C85.0694 23.7182 85.1134 22.0735 84.6886 20.8178L80.8995 22.0997ZM80.8737 23.5526C80.6054 24.2622 79.8921 24.7509 79.1641 24.7509V28.7509C81.5829 28.7509 83.7685 27.207 84.6153 24.9669L80.8737 23.5526ZM79.1438 24.751C78.7211 24.7553 78.4882 24.6993 78.3324 24.6364C78.1773 24.5737 77.9802 24.4562 77.6938 24.1739L74.8858 27.0226C75.4419 27.5707 76.0686 28.0357 76.8334 28.3449C77.5975 28.6537 78.3805 28.7589 79.1843 28.7508L79.1438 24.751ZM77.7078 24.1879C76.4528 22.9261 77.3944 20.8821 79.0366 20.9054L79.0933 16.9058C73.7481 16.83 71.1712 23.2881 74.8718 27.0087L77.7078 24.1879ZM79.0649 20.9056C79.2044 20.9056 79.3667 20.9142 79.5071 20.9276C79.5762 20.9342 79.6278 20.9407 79.6592 20.9455C79.6747 20.9479 79.6788 20.9488 79.6734 20.9478C79.6712 20.9473 79.641 20.9414 79.5932 20.9277L80.6924 17.0818C80.4143 17.0023 80.0905 16.965 79.8865 16.9456C79.6366 16.9218 79.3467 16.9056 79.0649 16.9056V20.9056ZM77.5233 19.798C77.5233 20.4713 77.7326 21.0935 78.0041 21.5843C78.2759 22.0754 78.6942 22.5868 79.2725 22.9464L81.3848 19.5496C81.4523 19.5917 81.486 19.6271 81.4955 19.6376C81.506 19.6493 81.5067 19.6525 81.504 19.6476C81.5013 19.6428 81.5034 19.6446 81.5075 19.659C81.5111 19.6717 81.5233 19.7184 81.5233 19.798H77.5233ZM79.2756 22.9484C79.9192 23.3469 80.6461 23.4884 81.2531 23.4912C81.8271 23.4939 82.6371 23.3724 83.3207 22.8544L80.9046 19.6665C81.0608 19.5481 81.1865 19.5107 81.2234 19.501C81.2675 19.4893 81.2831 19.4913 81.2718 19.4913C81.2622 19.4912 81.256 19.4896 81.2607 19.4908C81.263 19.4913 81.3085 19.5024 81.3816 19.5477L79.2756 22.9484ZM83.3129 22.8602L83.6103 22.6371L81.2097 19.4376L80.9124 19.6607L83.3129 22.8602ZM84.1292 20.0155L83.8567 19.5569L80.4182 21.6006L80.6907 22.0592L84.1292 20.0155ZM83.8295 19.5125C83.1926 18.5019 82.2248 17.8162 81.15 17.4L79.7055 21.1301C80.1669 21.3088 80.3637 21.5154 80.4454 21.6451L83.8295 19.5125ZM81.1488 17.3995C81.0136 17.3473 80.854 17.2866 80.7018 17.2386C80.5682 17.1965 80.2935 17.1149 79.9618 17.1048C79.5493 17.0923 79.1006 17.1904 78.6878 17.4581C78.3606 17.6703 78.1587 17.9302 78.11 17.9911L81.234 20.4893C81.2333 20.4902 81.2261 20.4992 81.2143 20.5129C81.2024 20.5267 81.1823 20.5494 81.1551 20.5772C81.1021 20.6315 81.0053 20.7227 80.8645 20.814C80.5222 21.036 80.1509 21.1124 79.8406 21.103C79.6111 21.096 79.4634 21.0423 79.4994 21.0536C79.5168 21.0591 79.5693 21.0774 79.7067 21.1305L81.1488 17.3995ZM78.0077 18.1311C77.8051 18.4352 77.698 18.7517 77.6423 18.953C77.5797 19.179 77.5233 19.4743 77.5233 19.798H81.5233C81.5233 19.9233 81.5041 19.9956 81.4973 20.0201C81.4919 20.0398 81.4823 20.0706 81.4649 20.1125C81.4511 20.1458 81.4125 20.2351 81.3363 20.3493L78.0077 18.1311ZM76.8896 17.4623C76.0011 17.8574 75.0601 18.5061 74.4655 19.3753L77.7672 21.6335C77.8169 21.5608 78.0652 21.3172 78.5147 21.1173L76.8896 17.4623ZM74.4637 19.378C74.3564 19.5354 74.1926 19.7851 74.0712 20.0757C73.9481 20.3704 73.7703 20.9372 73.9545 21.613C74.1427 22.3034 74.598 22.7068 74.8803 22.9059C75.1491 23.0954 75.4315 23.2192 75.607 23.2924L77.146 19.6003C77.0242 19.5495 77.079 19.5618 77.1852 19.6367C77.3049 19.7211 77.6626 20.0068 77.8136 20.5609C77.9607 21.1003 77.8061 21.5122 77.7619 21.6179C77.7195 21.7195 77.6904 21.7461 77.769 21.6308L74.4637 19.378ZM75.6018 23.2902C77.1669 23.9478 78.6788 23.2894 79.5294 22.4701C80.3638 21.6664 81.1639 20.0796 80.3014 18.4438L76.7631 20.3094C76.6481 20.0913 76.6521 19.867 76.6893 19.729C76.7056 19.6682 76.7259 19.6306 76.7366 19.6132C76.7475 19.5957 76.7544 19.5892 76.7545 19.5891C76.7548 19.5889 76.7554 19.5881 76.7591 19.586C76.7628 19.5838 76.7774 19.5758 76.8057 19.5683C76.8679 19.5518 77.0004 19.5391 77.1512 19.6025L75.6018 23.2902ZM80.2882 18.4191C80.0268 17.9397 79.4629 17.2726 78.4583 17.1636C77.7577 17.0876 77.1557 17.3462 76.9027 17.4565L78.5016 21.1231C78.5733 21.0918 78.5697 21.0984 78.5169 21.1121C78.4679 21.1248 78.2854 21.1683 78.0269 21.1403C77.7309 21.1082 77.4246 20.9916 77.1636 20.7843C76.9309 20.5994 76.816 20.4068 76.7763 20.334L80.2882 18.4191ZM77.7746 22.3884C78.0604 23.2462 78.8755 23.8801 79.8331 23.8801V19.8801C80.3079 19.8801 80.6802 20.0555 80.9253 20.2361C81.1844 20.4271 81.4353 20.7213 81.5694 21.1239L77.7746 22.3884ZM79.8331 23.8801C80.7906 23.8801 81.6058 23.2462 81.8916 22.3884L78.0967 21.1239C78.2308 20.7213 78.4818 20.4271 78.7408 20.2361C78.9859 20.0555 79.3583 19.8801 79.8331 19.8801V23.8801ZM81.8916 22.3884C82.199 21.4658 81.8173 20.6057 81.2533 20.1306C80.7686 19.7223 80.2198 19.6199 79.8331 19.6199V23.6199C79.5578 23.6199 79.1019 23.5484 78.6761 23.1897C78.452 23.0009 78.2186 22.7125 78.091 22.3153C77.959 21.9047 77.976 21.4863 78.0967 21.1239L81.8916 22.3884ZM79.8331 19.6199C79.4463 19.6199 78.8975 19.7223 78.4129 20.1306C77.8488 20.6057 77.4672 21.4658 77.7746 22.3884L81.5694 21.1239C81.6902 21.4863 81.7071 21.9047 81.5752 22.3153C81.4475 22.7125 81.2142 23.0009 80.99 23.1897C80.5642 23.5484 80.1083 23.6199 79.8331 23.6199V19.6199ZM76.2879 22.3884C76.5737 23.2462 77.3888 23.8801 78.3464 23.8801V19.8801C78.8212 19.8801 79.1935 20.0555 79.4386 20.2361C79.6977 20.4271 79.9486 20.7213 80.0828 21.1239L76.2879 22.3884ZM78.3464 23.8801C79.304 23.8801 80.1191 23.2462 80.4049 22.3884L76.61 21.1239C76.7442 20.7213 76.9951 20.4271 77.2542 20.2361C77.4992 20.0555 77.8716 19.8801 78.3464 19.8801V23.8801ZM80.4049 22.3884C80.7123 21.4658 80.3306 20.6057 79.7666 20.1306C79.2819 19.7223 78.7332 19.6199 78.3464 19.6199V23.6199C78.0711 23.6199 77.6153 23.5484 77.1895 23.1897C76.9653 23.0009 76.7319 22.7125 76.6043 22.3153C76.4723 21.9047 76.4893 21.4863 76.61 21.1239L80.4049 22.3884ZM78.3464 19.6199C77.9596 19.6199 77.4108 19.7223 76.9262 20.1306C76.3621 20.6057 75.9805 21.4658 76.2879 22.3884L80.0828 21.1239C80.2035 21.4863 80.2204 21.9047 80.0885 22.3153C79.9608 22.7125 79.7275 23.0009 79.5033 23.1897C79.0775 23.5484 78.6217 23.6199 78.3464 23.6199V19.6199ZM77.1091 21.0238C75.1539 23.1913 77.6152 26.3457 80.177 25.1397L78.4733 21.5207C79.7713 20.9096 81.1176 22.552 80.0792 23.7031L77.1091 21.0238ZM80.1132 25.1684C80.3281 25.0763 80.5445 24.9556 80.7379 24.8131C80.8295 24.7455 80.9705 24.6333 81.1112 24.4762C81.1812 24.3981 81.2894 24.2666 81.3895 24.0861C81.4779 23.9266 81.6472 23.5748 81.6472 23.0947H77.6472C77.6472 22.627 77.8119 22.2895 77.8915 22.1459C77.9828 21.9813 78.0781 21.8673 78.1314 21.8078C78.2388 21.6878 78.3318 21.6174 78.3645 21.5933C78.4403 21.5374 78.4956 21.5098 78.537 21.492L80.1132 25.1684ZM81.6472 23.0947C81.6472 23.2039 81.6377 23.2886 81.632 23.3322C81.6257 23.3807 81.6186 23.4183 81.6141 23.4408C81.6052 23.4847 81.5975 23.5125 81.5958 23.5183C81.5934 23.527 81.5923 23.5299 81.5931 23.5276C81.5937 23.5256 81.5943 23.524 81.5943 23.5241L77.8488 22.12C77.8134 22.2145 77.7764 22.3242 77.7451 22.4357C77.7371 22.4642 77.6472 22.7574 77.6472 23.0947H81.6472ZM81.5983 23.5132C81.8821 22.7427 81.6491 22.0788 81.5238 21.7978C81.3749 21.464 81.1707 21.1983 80.9879 21.0053C80.7997 20.8065 80.5649 20.6116 80.2895 20.4548C80.0379 20.3116 79.6041 20.1156 79.0526 20.1156V24.1156C78.6559 24.1156 78.3939 23.9785 78.3104 23.9309C78.203 23.8698 78.1324 23.8073 78.0836 23.7557C78.0401 23.7099 77.9505 23.6061 77.8706 23.4269C77.8142 23.3004 77.6044 22.7836 77.8448 22.1309L81.5983 23.5132ZM79.0526 20.1156C78.51 20.1156 78.0828 20.3112 77.8584 20.434C77.5972 20.577 77.3369 20.7732 77.114 21.0184L80.0743 23.7085C79.9753 23.8174 79.8761 23.8897 79.779 23.9428C79.726 23.9718 79.6483 24.009 79.5456 24.0416C79.45 24.0719 79.2786 24.1156 79.0526 24.1156V20.1156ZM80.6336 20.79C78.9744 21.824 78.3695 24.1238 79.4113 25.842L82.8317 23.7681C82.9167 23.9082 82.8961 24.0057 82.8927 24.0193C82.8894 24.0327 82.8676 24.111 82.7492 24.1848L80.6336 20.79ZM79.4253 25.8648C79.7043 26.3113 80.1981 26.897 80.9786 27.1621C81.4005 27.3053 81.9114 27.3516 82.4399 27.1931C82.9665 27.0352 83.3643 26.718 83.6375 26.3764L80.5135 23.8782C80.6628 23.6915 80.9181 23.4735 81.291 23.3617C81.6658 23.2493 82.0118 23.2886 82.2648 23.3745C82.5031 23.4554 82.6509 23.5724 82.7189 23.6348C82.7561 23.6689 82.7809 23.6972 82.7953 23.715C82.8099 23.733 82.8168 23.7439 82.8177 23.7454L79.4253 25.8648ZM83.6341 26.3805C84.3821 25.4503 84.7497 24.3682 84.8377 23.2233L80.8495 22.9166C80.8136 23.3829 80.6857 23.664 80.5168 23.8741L83.6341 26.3805ZM84.8381 23.2187L84.9 22.3883L80.9111 22.0908L80.8491 22.9211L84.8381 23.2187ZM82.9055 20.2395H82.4967V24.2395H82.9055V20.2395ZM82.4967 20.2395C82.1082 20.2395 81.7497 20.3255 81.5043 20.4013C81.2432 20.4819 80.936 20.6051 80.6482 20.781L82.7346 24.1938C82.713 24.207 82.6973 24.2154 82.6887 24.2197C82.6798 24.2243 82.6747 24.2265 82.6737 24.2269C82.6727 24.2273 82.6773 24.2254 82.6839 24.2234C82.6912 24.2212 82.6873 24.2229 82.6695 24.2262C82.6598 24.228 82.6418 24.231 82.616 24.2337C82.5909 24.2363 82.5503 24.2395 82.4967 24.2395V20.2395ZM74.7948 20.4459C73.6276 20.8924 73.3893 22.0028 73.3374 22.3412C73.2654 22.8097 73.3088 23.2709 73.3718 23.632C73.5008 24.3721 73.8083 25.2234 74.2714 25.9461L77.6392 23.788C77.4829 23.5439 77.3567 23.1992 77.3123 22.9448C77.2886 22.8086 77.3103 22.8228 77.291 22.9485C77.281 23.0133 77.2465 23.1998 77.1164 23.4264C76.9751 23.6724 76.6954 24.0015 76.2238 24.1819L74.7948 20.4459ZM74.2546 25.9194C74.338 26.0542 74.4394 26.2146 74.5475 26.3612C74.6424 26.4899 74.8414 26.7477 75.1505 26.9663C75.5358 27.2388 76.0239 27.4038 76.5634 27.3704C76.9912 27.3438 77.3194 27.1949 77.4205 27.1493L75.7785 23.5019C75.7839 23.4995 75.835 23.4762 75.9134 23.4516C75.9938 23.4262 76.1339 23.3893 76.3159 23.378C76.7617 23.3504 77.1646 23.4914 77.4601 23.7004C77.5806 23.7857 77.6609 23.8662 77.702 23.9105C77.7437 23.9555 77.766 23.986 77.7665 23.9868C77.768 23.9887 77.7598 23.9777 77.7388 23.9456C77.7184 23.9143 77.6917 23.8724 77.656 23.8146L74.2546 25.9194ZM77.4274 27.1462C78.5939 26.6158 79.07 25.492 79.2189 24.715C79.3781 23.8839 79.2966 22.8538 78.7509 21.9631L75.3402 24.0528C75.3172 24.0154 75.3051 23.9857 75.2989 23.968C75.2928 23.9503 75.2914 23.9407 75.2913 23.94C75.2912 23.9392 75.2917 23.9426 75.2915 23.9491C75.2914 23.9557 75.2907 23.9606 75.2903 23.9625C75.2881 23.9743 75.2923 23.9342 75.341 23.8585C75.3898 23.7827 75.5188 23.62 75.7717 23.505L77.4274 27.1462ZM78.7504 21.9622C78.3521 21.3129 77.7613 20.8406 77.1549 20.5654C76.5869 20.3077 75.6938 20.0908 74.7747 20.4537L76.2439 24.1741C76.0075 24.2675 75.8118 24.2681 75.7054 24.2577C75.5971 24.247 75.5305 24.2209 75.5021 24.208C75.4625 24.19 75.4045 24.1576 75.3407 24.0537L78.7504 21.9622ZM78.118 23.1691C78.118 23.8258 78.417 24.3006 78.6282 24.5516C78.8609 24.828 79.194 25.0849 79.6216 25.2275L80.887 21.4329C81.2403 21.5507 81.5052 21.7581 81.6883 21.9756C81.85 22.1677 82.118 22.5743 82.118 23.1691H78.118ZM79.6216 25.2275C80.545 25.5354 81.4055 25.1529 81.8804 24.5887C82.2883 24.1041 82.3906 23.5555 82.3906 23.1691H78.3906C78.3906 22.8942 78.4618 22.4386 78.8202 22.0128C79.009 21.7886 79.2973 21.555 79.6947 21.4272C80.1056 21.295 80.5244 21.312 80.887 21.4329L79.6216 25.2275ZM82.3906 23.1691C82.3906 22.7826 82.2883 22.2341 81.8804 21.7494C81.4055 21.1852 80.545 20.8027 79.6216 21.1107L80.887 24.9053C80.5244 25.0262 80.1056 25.0431 79.6947 24.911C79.2973 24.7832 79.009 24.5496 78.8202 24.3254C78.4618 23.8996 78.3906 23.444 78.3906 23.1691H82.3906ZM79.6216 21.1107C79.194 21.2533 78.8609 21.5102 78.6282 21.7866C78.417 22.0375 78.118 22.5124 78.118 23.1691H82.118C82.118 23.7638 81.85 24.1705 81.6883 24.3626C81.5052 24.5801 81.2403 24.7874 80.887 24.9053L79.6216 21.1107ZM75.7641 23.1691C75.7641 23.8258 76.0631 24.3006 76.2743 24.5516C76.507 24.828 76.8401 25.0849 77.2677 25.2275L78.5331 21.4329C78.8863 21.5507 79.1513 21.7581 79.3344 21.9756C79.4961 22.1677 79.7641 22.5743 79.7641 23.1691H75.7641ZM77.2677 25.2275C78.1911 25.5354 79.0515 25.1529 79.5265 24.5887C79.9344 24.1041 80.0367 23.5555 80.0367 23.1691H76.0367C76.0367 22.8942 76.1079 22.4386 76.4663 22.0128C76.655 21.7886 76.9433 21.555 77.3408 21.4272C77.7517 21.295 78.1705 21.312 78.5331 21.4329L77.2677 25.2275ZM80.0367 23.1691C80.0367 22.7826 79.9344 22.2341 79.5265 21.7494C79.0515 21.1852 78.1911 20.8027 77.2677 21.1107L78.5331 24.9053C78.1705 25.0262 77.7517 25.0431 77.3408 24.911C76.9433 24.7832 76.655 24.5496 76.4663 24.3254C76.1079 23.8996 76.0367 23.444 76.0367 23.1691H80.0367ZM77.2677 21.1107C76.8401 21.2533 76.507 21.5102 76.2743 21.7866C76.0631 22.0375 75.7641 22.5124 75.7641 23.1691H79.7641C79.7641 23.7638 79.4961 24.1705 79.3344 24.3626C79.1513 24.5801 78.8863 24.7874 78.5331 24.9053L77.2677 21.1107ZM76.9039 24.049C76.9039 24.541 77.0773 25.1977 77.654 25.6868C78.2094 26.1579 78.8581 26.2332 79.3269 26.1676C80.2345 26.0405 80.8969 25.386 81.1482 24.6317L77.3533 23.3672C77.5304 22.836 78.0192 22.3117 78.7721 22.2063C79.1634 22.1514 79.7393 22.2105 80.2413 22.6363C80.7645 23.0801 80.9039 23.6625 80.9039 24.049H76.9039ZM81.1739 24.5487C81.3582 23.9033 81.2488 23.0856 80.642 22.4786C80.1177 21.9541 79.4848 21.8507 79.1021 21.8507V25.8507C78.8309 25.8507 78.2847 25.7783 77.8131 25.3065C77.259 24.7522 77.1681 24.0088 77.3277 23.4502L81.1739 24.5487ZM79.1021 21.8507C77.8853 21.8507 76.9039 22.8337 76.9039 24.049H80.9039C80.9039 25.0413 80.0959 25.8507 79.1021 25.8507V21.8507ZM77.7001 23.0513C77.1054 23.3041 76.6152 23.7196 76.2757 24.1319C76.0997 24.3458 75.9187 24.6135 75.783 24.9272C75.6585 25.2149 75.4998 25.7083 75.5874 26.3002L79.5443 25.7143C79.6072 26.1389 79.4887 26.4356 79.4541 26.5156C79.4082 26.6218 79.3666 26.671 79.3639 26.6742C79.357 26.6826 79.3556 26.6833 79.3545 26.6841C79.3527 26.6855 79.3462 26.6905 79.3339 26.6979C79.3218 26.7052 79.2992 26.7179 79.2652 26.7324L77.7001 23.0513ZM75.5891 26.3113C75.6952 27.0008 76.0823 27.4726 76.3989 27.7454C76.7126 28.0157 77.0524 28.1793 77.3266 28.2813C77.8784 28.4867 78.4948 28.565 79.0773 28.565V24.565C78.8174 24.565 78.7029 24.5255 78.722 24.5326C78.7297 24.5355 78.8528 24.5798 79.01 24.7153C79.1702 24.8533 79.4614 25.1748 79.5426 25.7033L75.5891 26.3113ZM79.0422 28.5647C79.5919 28.5743 80.1648 28.4959 80.6413 28.3709C80.8769 28.309 81.1587 28.2178 81.4304 28.0809C81.5657 28.0127 81.7495 27.9079 81.9355 27.7535C82.1035 27.6141 82.4067 27.3252 82.5892 26.8558L78.861 25.4065C79.0218 24.993 79.2793 24.7598 79.3812 24.6752C79.5011 24.5758 79.5984 24.5249 79.6303 24.5088C79.6952 24.4761 79.703 24.4817 79.6257 24.5019C79.4765 24.5411 79.269 24.568 79.1124 24.5653L79.0422 28.5647ZM82.6069 26.8084C82.8489 26.136 82.7129 25.5351 82.6076 25.2184C82.4901 24.8654 82.3124 24.5656 82.1418 24.3327C81.811 23.8811 81.3105 23.4159 80.6824 23.1317L79.0332 26.7759C78.9645 26.7448 78.9349 26.7188 78.9335 26.7176C78.9305 26.715 78.9258 26.7113 78.915 26.6966C78.9101 26.6898 78.8586 26.6209 78.812 26.4808C78.7775 26.3772 78.657 25.9715 78.8432 25.454L82.6069 26.8084ZM80.6636 23.1233C80.3415 22.9815 79.8368 22.7673 79.2361 22.7391C78.5879 22.7087 78.0655 22.9015 77.7251 23.0408L79.2402 26.7428C79.2858 26.7241 79.3129 26.7141 79.3273 26.7091C79.3413 26.7043 79.3358 26.7068 79.3156 26.7118C79.2943 26.717 79.2574 26.7247 79.2084 26.73C79.1583 26.7354 79.1042 26.7373 79.0487 26.7347C78.935 26.7294 78.8638 26.7073 78.8623 26.7068C78.8622 26.7068 78.8632 26.7071 78.8653 26.7078C78.8673 26.7085 78.8704 26.7096 78.8745 26.711C78.8829 26.714 78.895 26.7185 78.9113 26.7249C78.9449 26.7381 78.99 26.757 79.0521 26.7843L80.6636 23.1233Z" fill="#F3BB7A" mask="url(#path-5-inside-3)"/>
    <mask id="path-7-inside-4" fill="white">
        <path d="M20.7992 16.9226C21.8027 17.0837 23.1779 17.8149 23.9584 18.5834C24.7885 19.4137 25.4575 20.7399 25.6433 21.9421C26.1265 24.9786 23.9956 28.0398 20.9479 28.6719C17.6152 29.366 14.3693 27.0855 13.8366 23.6896C13.3534 20.5168 15.6206 17.406 18.817 16.9102C19.7338 16.7739 19.8577 16.7739 20.7992 16.9226ZM18.5692 18.7197C17.3551 19.0791 16.3268 19.9715 15.8064 21.1117C15.3976 21.9917 15.4224 23.6772 15.856 24.6068C16.2648 25.4619 16.9834 26.2056 17.8506 26.6641C18.4329 26.974 18.6435 27.0112 19.6842 27.0112C20.7001 27.0112 20.9603 26.9616 21.5426 26.6889C22.4098 26.2799 23.1779 25.5115 23.6115 24.6192C23.9089 24.0119 23.9584 23.764 23.9584 22.8592C23.9584 21.9793 23.9089 21.6942 23.6363 21.1241C22.6948 19.1039 20.6134 18.1124 18.5692 18.7197Z"/>
    </mask>
    <path d="M20.7992 16.9226L21.1163 14.9479L21.1113 14.9471L20.7992 16.9226ZM23.9584 18.5834L25.3729 17.1694L25.3673 17.1638L25.3616 17.1582L23.9584 18.5834ZM25.6433 21.9421L23.6668 22.2476L23.6682 22.2564L25.6433 21.9421ZM20.9479 28.6719L20.5417 26.7136L20.5401 26.7139L20.9479 28.6719ZM13.8366 23.6896L11.8594 23.9907L11.8608 23.9996L13.8366 23.6896ZM18.817 16.9102L18.5228 14.9319L18.5105 14.9338L18.817 16.9102ZM18.5692 18.7197L19.1369 20.6374L19.1388 20.6369L18.5692 18.7197ZM15.8064 21.1117L17.6203 21.9544L17.6259 21.942L15.8064 21.1117ZM15.856 24.6068L14.0435 25.4523L14.0475 25.4609L14.0516 25.4694L15.856 24.6068ZM17.8506 26.6641L18.7902 24.8985L18.7855 24.8961L17.8506 26.6641ZM21.5426 26.6889L22.3907 28.5002L22.3957 28.4978L21.5426 26.6889ZM23.6115 24.6192L21.8153 23.7397L21.8127 23.745L23.6115 24.6192ZM23.6363 21.1241L21.8235 21.969L21.8277 21.9779L21.8319 21.9867L23.6363 21.1241ZM20.4822 18.8973C20.6997 18.9322 21.0819 19.0582 21.5293 19.2942C21.9689 19.5261 22.3365 19.7931 22.5553 20.0086L25.3616 17.1582C24.7999 16.6052 24.0896 16.1224 23.3956 15.7563C22.7095 15.3943 21.9022 15.0741 21.1163 14.9479L20.4822 18.8973ZM22.544 19.9973C23.0665 20.52 23.5443 21.4549 23.6668 22.2476L27.6199 21.6366C27.3707 20.0248 26.5105 18.3075 25.3729 17.1694L22.544 19.9973ZM23.6682 22.2564C23.9808 24.2212 22.5601 26.295 20.5417 26.7136L21.3541 30.6303C25.4311 29.7847 28.2722 25.736 27.6185 21.6278L23.6682 22.2564ZM20.5401 26.7139C18.352 27.1696 16.1719 25.6711 15.8124 23.3797L11.8608 23.9996C12.5667 28.4999 16.8785 31.5623 21.3557 30.6299L20.5401 26.7139ZM15.8138 23.3885C15.4963 21.3037 17.0184 19.2131 19.1235 18.8866L18.5105 14.9338C14.2228 15.5988 11.2105 19.7299 11.8594 23.9907L15.8138 23.3885ZM19.1112 18.8884C19.5906 18.8172 19.7016 18.809 19.787 18.8095C19.8753 18.81 19.9949 18.8203 20.4872 18.8981L21.1113 14.9471C20.662 14.8761 20.2488 14.8121 19.8106 14.8095C19.3695 14.8069 18.9602 14.8669 18.5228 14.932L19.1112 18.8884ZM18.0015 16.802C16.2362 17.3245 14.7492 18.6111 13.987 20.2814L17.6259 21.942C17.9044 21.3319 18.474 20.8337 19.1369 20.6374L18.0015 16.802ZM13.9927 20.269C13.6117 21.089 13.504 22.0673 13.5155 22.8693C13.5272 23.6819 13.666 24.643 14.0435 25.4523L17.6685 23.7613C17.6124 23.641 17.522 23.2945 17.5151 22.8119C17.5119 22.592 17.5272 22.3881 17.5546 22.2207C17.5681 22.1382 17.5831 22.0726 17.597 22.0239C17.6112 21.974 17.621 21.9528 17.6202 21.9544L13.9927 20.269ZM14.0516 25.4694C14.6508 26.7227 15.6798 27.7786 16.9157 28.4322L18.7855 24.8961C18.287 24.6325 17.8789 24.2012 17.6604 23.7441L14.0516 25.4694ZM16.9111 28.4297C17.2662 28.6186 17.6748 28.8158 18.2261 28.9194C18.6938 29.0073 19.1911 29.0112 19.6842 29.0112V25.0112C19.4289 25.0112 19.2605 25.0087 19.1355 25.0028C19.0141 24.997 18.9709 24.9894 18.965 24.9883C18.9636 24.988 18.9678 24.9888 18.9747 24.9908C18.9814 24.9928 18.9834 24.9938 18.9779 24.9916C18.9605 24.9847 18.9129 24.9639 18.7901 24.8985L16.9111 28.4297ZM19.6842 29.0112C20.1903 29.0112 20.6669 29.002 21.1217 28.9222C21.636 28.8319 22.0289 28.6696 22.3907 28.5002L20.6944 24.8777C20.4739 24.9809 20.4456 24.9797 20.4303 24.9824C20.3555 24.9955 20.194 25.0112 19.6842 25.0112V29.0112ZM22.3957 28.4978C23.6908 27.887 24.7849 26.7805 25.4104 25.4933L21.8127 23.745C21.571 24.2425 21.1288 24.6728 20.6895 24.88L22.3957 28.4978ZM25.4078 25.4986C25.5835 25.1397 25.759 24.7428 25.8586 24.2382C25.9497 23.7768 25.9584 23.3147 25.9584 22.8592H21.9584C21.9584 23.3085 21.9424 23.4227 21.9344 23.4633C21.9331 23.4697 21.9315 23.4787 21.9206 23.5074C21.9061 23.5457 21.8781 23.6115 21.8153 23.7397L25.4078 25.4986ZM25.9584 22.8592C25.9584 22.4101 25.9487 21.9602 25.8666 21.5136C25.7759 21.0209 25.6168 20.6297 25.4407 20.2615L21.8319 21.9867C21.9284 22.1886 21.9303 22.2249 21.9326 22.2374C21.9433 22.2958 21.9584 22.4284 21.9584 22.8592H25.9584ZM25.4491 20.2792C24.1198 17.427 21.0625 15.8926 17.9996 16.8025L19.1388 20.6369C20.1643 20.3322 21.2697 20.7808 21.8235 21.969L25.4491 20.2792Z" fill="#F3BB7A" mask="url(#path-7-inside-4)"/>
    <mask id="path-9-inside-5" fill="white">
        <path d="M21.047 19.0915C22.1621 19.4881 23.178 20.5416 23.5249 21.6694C23.785 22.475 23.6364 23.9375 23.2151 24.7059C22.001 26.9244 18.9781 27.4573 17.1197 25.7842C15.0136 23.8879 15.4844 20.492 18.0241 19.2526C18.8046 18.8808 20.2294 18.7941 21.047 19.0915ZM20.1798 19.798C20.1798 20.3309 20.5267 20.963 20.9851 21.248C21.5054 21.5703 22.3603 21.5703 22.7691 21.2604L23.0665 21.0373L22.7939 20.5788C22.4346 20.0087 21.8523 19.5625 21.0842 19.265C20.5391 19.0543 20.4772 19.0543 20.3285 19.2402C20.2541 19.3518 20.1798 19.5997 20.1798 19.798ZM18.3586 19.2898C17.6772 19.5873 17.0949 20.0334 16.7728 20.5168C16.3764 21.0745 16.4631 21.2976 17.1569 21.4835C18.433 21.8305 19.7586 20.4548 19.1887 19.3766C19.04 19.1039 18.8418 19.0791 18.3586 19.2898ZM20.3285 21.7562C20.3533 21.8305 20.4276 21.8801 20.4895 21.8801C20.5515 21.8801 20.6258 21.8305 20.6506 21.7562C20.6754 21.6818 20.601 21.6198 20.4895 21.6198C20.378 21.6198 20.3037 21.6818 20.3285 21.7562ZM18.8418 21.7562C18.8666 21.8305 18.9409 21.8801 19.0029 21.8801C19.0648 21.8801 19.1391 21.8305 19.1639 21.7562C19.1887 21.6818 19.1144 21.6198 19.0029 21.6198C18.8914 21.6198 18.817 21.6818 18.8418 21.7562ZM19.2382 22.4254C19.0648 22.6857 19.0524 22.8097 19.1639 23.0451C19.4241 23.6153 20.4276 23.4046 20.4276 22.7725C20.4276 22.5246 19.9692 22.1156 19.6843 22.1156C19.548 22.1156 19.3497 22.2519 19.2382 22.4254ZM22.3479 22.4874C21.9019 22.7601 21.5426 23.3922 21.5426 23.9127C21.5426 24.3961 21.8771 25.0281 22.2364 25.2141C22.4966 25.3628 22.5585 25.3504 22.732 25.1397C23.1904 24.5572 23.5249 23.6524 23.5249 22.946V22.2395H23.1408C22.9178 22.2395 22.5709 22.3511 22.3479 22.4874ZM16.1038 22.3511C15.7198 22.599 16.1658 24.3589 16.81 25.2017C17.0082 25.4495 17.0702 25.4743 17.2932 25.3256C18.2719 24.7183 18.1108 22.884 17.0454 22.4254C16.5746 22.2148 16.3392 22.2024 16.1038 22.3511ZM20.7745 23.1691C20.7745 23.231 20.8364 23.3054 20.9108 23.3302C20.9851 23.355 21.047 23.2806 21.047 23.1691C21.047 23.0575 20.9851 22.9832 20.9108 23.008C20.8364 23.0327 20.7745 23.1071 20.7745 23.1691ZM18.4206 23.1691C18.4206 23.231 18.4825 23.3054 18.5569 23.3302C18.6312 23.355 18.6931 23.2806 18.6931 23.1691C18.6931 23.0575 18.6312 22.9832 18.5569 23.008C18.4825 23.0327 18.4206 23.1071 18.4206 23.1691ZM19.5604 24.049C19.5604 24.1606 19.6223 24.2225 19.709 24.1978C19.932 24.1234 19.9692 23.8507 19.7586 23.8507C19.6471 23.8507 19.5604 23.9375 19.5604 24.049ZM19.1391 24.8918C18.6436 25.1025 18.1728 25.6726 18.2223 26.0073C18.2471 26.1808 18.4082 26.3171 18.6931 26.4163C19.548 26.7013 21.2205 26.5402 21.3692 26.1436C21.4931 25.8214 21.047 25.2017 20.5143 24.9538C19.8949 24.6811 19.6843 24.6687 19.1391 24.8918Z"/>
    </mask>
    <path d="M21.047 19.0915L20.3633 20.971L20.3701 20.9735L20.3768 20.9759L21.047 19.0915ZM23.5249 21.6694L21.6132 22.2574L21.6173 22.2708L21.6216 22.2841L23.5249 21.6694ZM23.2151 24.7059L21.4613 23.7445L21.4607 23.7457L23.2151 24.7059ZM18.0241 19.2526L17.164 17.447L17.1555 17.4511L17.147 17.4552L18.0241 19.2526ZM20.9851 21.248L19.9289 22.9464L19.9321 22.9484L20.9851 21.248ZM22.7691 21.2604L21.5688 19.6606L21.5611 19.6665L22.7691 21.2604ZM23.0665 21.0373L24.2668 22.6371L25.7033 21.5593L24.7857 20.0155L23.0665 21.0373ZM22.7939 20.5788L24.5131 19.5569L24.4998 19.5345L24.4859 19.5125L22.7939 20.5788ZM21.0842 19.265L21.8064 17.4L21.8053 17.3995L21.0842 19.265ZM20.3285 19.2402L18.7665 17.9911L18.7123 18.0589L18.6642 18.1311L20.3285 19.2402ZM18.3586 19.2898L17.5592 17.4565L17.5585 17.4568L18.3586 19.2898ZM16.7728 20.5168L18.403 21.6756L18.4204 21.651L18.4371 21.6259L16.7728 20.5168ZM17.1569 21.4835L17.6817 19.5536L17.6745 19.5517L17.1569 21.4835ZM19.1887 19.3766L20.9569 18.442L20.9508 18.4305L20.9446 18.4191L19.1887 19.3766ZM19.2382 22.4254L20.9025 23.5346L20.9118 23.5207L20.9208 23.5067L19.2382 22.4254ZM19.1639 23.0451L20.9834 22.2148L20.9776 22.202L20.9715 22.1892L19.1639 23.0451ZM22.2364 25.2141L23.229 23.4777L23.1927 23.457L23.1555 23.4378L22.2364 25.2141ZM22.732 25.1397L24.2761 26.4108L24.29 26.3938L24.3037 26.3765L22.732 25.1397ZM23.5249 22.2395H25.5249V20.2395H23.5249V22.2395ZM16.1038 22.3511L15.0355 20.6603L15.0274 20.6654L15.0193 20.6707L16.1038 22.3511ZM16.81 25.2017L15.2211 26.4163L15.2344 26.4337L15.248 26.4508L16.81 25.2017ZM17.2932 25.3256L16.2387 23.6262L16.2108 23.6435L16.1835 23.6617L17.2932 25.3256ZM17.0454 22.4254L16.2284 24.251L16.2415 24.2568L16.2547 24.2625L17.0454 22.4254ZM19.709 24.1978L20.2587 26.1208L20.3005 26.1088L20.3417 26.0951L19.709 24.1978ZM19.1391 24.8918L18.3816 23.0408L18.3691 23.046L18.3566 23.0513L19.1391 24.8918ZM18.2223 26.0073L20.2023 25.7245L20.2008 25.7143L18.2223 26.0073ZM18.6931 26.4163L18.0359 28.3052L18.0481 28.3094L18.0605 28.3135L18.6931 26.4163ZM21.3692 26.1436L19.5024 25.4259L19.4994 25.4337L19.4964 25.4416L21.3692 26.1436ZM20.5143 24.9538L21.358 23.1405L21.3391 23.1317L21.3201 23.1233L20.5143 24.9538ZM20.3768 20.9759C20.9031 21.1631 21.4542 21.7402 21.6132 22.2574L25.4365 21.0815C24.9018 19.343 23.421 17.8132 21.7173 17.2072L20.3768 20.9759ZM21.6216 22.2841C21.6202 22.2797 21.6399 22.3463 21.6492 22.4979C21.6579 22.6405 21.6547 22.8135 21.6358 22.9989C21.617 23.184 21.5849 23.3578 21.546 23.5026C21.5052 23.6549 21.4688 23.7309 21.4613 23.7445L24.9689 25.6673C25.3548 24.9634 25.5428 24.1154 25.6152 23.4043C25.6871 22.6991 25.6764 21.8238 25.4281 21.0548L21.6216 22.2841ZM21.4607 23.7457C20.853 24.8561 19.3368 25.0891 18.4579 24.2978L15.7815 27.2705C18.6193 29.8255 23.149 28.9927 24.9696 25.6661L21.4607 23.7457ZM18.4579 24.2978C17.3988 23.3443 17.6436 21.6638 18.9012 21.05L17.147 17.4552C13.3252 19.3203 12.6283 24.4316 15.7815 27.2705L18.4579 24.2978ZM18.8843 21.0582C18.9601 21.0221 19.231 20.9404 19.6329 20.918C19.8145 20.9079 19.9847 20.9124 20.1268 20.9276C20.1968 20.9351 20.2535 20.9444 20.2965 20.9536C20.3177 20.9582 20.334 20.9623 20.3457 20.9656C20.3515 20.9672 20.3558 20.9685 20.3588 20.9695C20.3603 20.97 20.3615 20.9704 20.3622 20.9706C20.363 20.9709 20.3633 20.971 20.3633 20.971L21.7308 17.212C20.9751 16.9371 20.117 16.8848 19.4104 16.9242C18.7004 16.9638 17.8687 17.1113 17.164 17.447L18.8843 21.0582ZM18.1798 19.798C18.1798 20.4713 18.3891 21.0935 18.6606 21.5843C18.9324 22.0754 19.3507 22.5868 19.9289 22.9464L22.0413 19.5496C22.1088 19.5917 22.1424 19.6271 22.1519 19.6376C22.1625 19.6493 22.1632 19.6525 22.1605 19.6476C22.1578 19.6428 22.1599 19.6446 22.164 19.659C22.1676 19.6717 22.1798 19.7184 22.1798 19.798H18.1798ZM19.9321 22.9484C20.5757 23.3469 21.3026 23.4884 21.9095 23.4912C22.4835 23.4939 23.2936 23.3724 23.9771 22.8544L21.5611 19.6665C21.7173 19.5481 21.8429 19.5107 21.8799 19.501C21.924 19.4893 21.9396 19.4913 21.9283 19.4913C21.9187 19.4912 21.9125 19.4896 21.9172 19.4908C21.9194 19.4913 21.965 19.5024 22.0381 19.5477L19.9321 22.9484ZM23.9694 22.8602L24.2668 22.6371L21.8662 19.4376L21.5688 19.6607L23.9694 22.8602ZM24.7857 20.0155L24.5131 19.5569L21.0747 21.6006L21.3472 22.0592L24.7857 20.0155ZM24.4859 19.5125C23.8491 18.5019 22.8812 17.8162 21.8064 17.4L20.362 21.1301C20.8234 21.3088 21.0201 21.5154 21.1019 21.6451L24.4859 19.5125ZM21.8053 17.3995C21.6701 17.3473 21.5104 17.2866 21.3583 17.2386C21.2247 17.1965 20.95 17.1149 20.6183 17.1048C20.2058 17.0923 19.7571 17.1904 19.3443 17.4581C19.0171 17.6703 18.8152 17.9302 18.7665 17.9911L21.8905 20.4893C21.8898 20.4902 21.8826 20.4992 21.8707 20.5129C21.8589 20.5267 21.8388 20.5494 21.8116 20.5772C21.7586 20.6315 21.6617 20.7227 21.521 20.814C21.1786 21.036 20.8074 21.1124 20.4971 21.103C20.2676 21.096 20.1199 21.0423 20.1558 21.0536C20.1733 21.0591 20.2258 21.0774 20.3632 21.1305L21.8053 17.3995ZM18.6642 18.1311C18.4615 18.4352 18.3545 18.7517 18.2988 18.953C18.2362 19.179 18.1798 19.4743 18.1798 19.798H22.1798C22.1798 19.9233 22.1606 19.9956 22.1538 20.0201C22.1483 20.0398 22.1388 20.0706 22.1214 20.1125C22.1076 20.1458 22.0689 20.2351 21.9928 20.3493L18.6642 18.1311ZM17.5585 17.4568C16.6345 17.8602 15.7008 18.5189 15.1085 19.4077L18.4371 21.6259C18.4891 21.5479 18.72 21.3143 19.1588 21.1228L17.5585 17.4568ZM15.1427 19.358C15.0051 19.5516 14.8142 19.844 14.6861 20.2C14.5509 20.5758 14.4269 21.1946 14.6963 21.8754C14.9586 22.5383 15.4525 22.8988 15.7705 23.0771C16.0844 23.253 16.4063 23.3529 16.6392 23.4154L17.6745 19.5517C17.5606 19.5211 17.6115 19.5235 17.7263 19.5878C17.8453 19.6545 18.2123 19.8896 18.4157 20.4037C18.6263 20.9359 18.5116 21.3826 18.45 21.554C18.3955 21.7055 18.3423 21.7609 18.403 21.6756L15.1427 19.358ZM16.6321 23.4134C18.1147 23.8166 19.4877 23.2003 20.3049 22.3526C21.1104 21.5171 21.773 19.9861 20.9569 18.442L17.4205 20.3111C17.3164 20.1143 17.3089 19.9034 17.3432 19.7559C17.3725 19.6302 17.422 19.5797 17.4252 19.5764C17.4307 19.5707 17.4393 19.5619 17.4677 19.5526C17.5038 19.5407 17.583 19.5267 17.6817 19.5536L16.6321 23.4134ZM20.9446 18.4191C20.6832 17.9397 20.1193 17.2726 19.1148 17.1636C18.4142 17.0876 17.8122 17.3462 17.5592 17.4565L19.1581 21.1231C19.2298 21.0918 19.2261 21.0984 19.1734 21.1121C19.1244 21.1248 18.9419 21.1683 18.6834 21.1403C18.3874 21.1082 18.081 20.9916 17.82 20.7843C17.5874 20.5994 17.4725 20.4068 17.4327 20.334L20.9446 18.4191ZM18.431 22.3884C18.7169 23.2462 19.532 23.8801 20.4895 23.8801V19.8801C20.9643 19.8801 21.3367 20.0555 21.5818 20.2361C21.8408 20.4271 22.0918 20.7213 22.2259 21.1239L18.431 22.3884ZM20.4895 23.8801C21.4471 23.8801 22.2622 23.2462 22.548 22.3884L18.7532 21.1239C18.8873 20.7213 19.1382 20.4271 19.3973 20.2361C19.6424 20.0555 20.0147 19.8801 20.4895 19.8801V23.8801ZM22.548 22.3884C22.8555 21.4658 22.4738 20.6057 21.9097 20.1306C21.4251 19.7223 20.8763 19.6198 20.4895 19.6198V23.6198C20.2143 23.6198 19.7584 23.5484 19.3326 23.1897C19.1084 23.0008 18.8751 22.7125 18.7474 22.3153C18.6155 21.9047 18.6324 21.4863 18.7532 21.1239L22.548 22.3884ZM20.4895 19.6198C20.1028 19.6198 19.554 19.7223 19.0693 20.1306C18.5053 20.6057 18.1236 21.4658 18.431 22.3884L22.2259 21.1239C22.3466 21.4863 22.3636 21.9047 22.2316 22.3153C22.104 22.7125 21.8707 23.0008 21.6465 23.1897C21.2207 23.5484 20.7648 23.6198 20.4895 23.6198V19.6198ZM16.9444 22.3884C17.2302 23.2462 18.0453 23.8801 19.0029 23.8801V19.8801C19.4777 19.8801 19.85 20.0555 20.0951 20.2361C20.3542 20.4271 20.6051 20.7213 20.7392 21.1239L16.9444 22.3884ZM19.0029 23.8801C19.9604 23.8801 20.7755 23.2462 21.0614 22.3884L17.2665 21.1239C17.4006 20.7213 17.6516 20.4271 17.9106 20.2361C18.1557 20.0555 18.5281 19.8801 19.0029 19.8801V23.8801ZM21.0614 22.3884C21.3688 21.4658 20.9871 20.6057 20.4231 20.1306C19.9384 19.7223 19.3896 19.6198 19.0029 19.6198V23.6198C18.7276 23.6198 18.2717 23.5484 17.8459 23.1897C17.6217 23.0008 17.3884 22.7125 17.2608 22.3153C17.1288 21.9047 17.1458 21.4863 17.2665 21.1239L21.0614 22.3884ZM19.0029 19.6198C18.6161 19.6198 18.0673 19.7223 17.5827 20.1306C17.0186 20.6057 16.6369 21.4658 16.9444 22.3884L20.7392 21.1239C20.86 21.4863 20.8769 21.9047 20.745 22.3153C20.6173 22.7125 20.384 23.0008 20.1598 23.1897C19.734 23.5484 19.2781 23.6198 19.0029 23.6198V19.6198ZM17.574 21.3163C17.4501 21.5022 17.1759 21.928 17.1077 22.5129C17.0327 23.1561 17.2398 23.6551 17.3563 23.901L20.9715 22.1892C20.9765 22.1997 21.1341 22.519 21.0808 22.9763C21.0342 23.3752 20.8529 23.609 20.9025 23.5346L17.574 21.3163ZM17.3444 23.8755C17.9933 25.2974 19.454 25.4982 20.3103 25.3157C21.1724 25.1319 22.4276 24.3447 22.4276 22.7725H18.4276C18.4276 21.8323 19.181 21.4665 19.4763 21.4036C19.7658 21.3419 20.5947 21.363 20.9834 22.2148L17.3444 23.8755ZM22.4276 22.7725C22.4276 22.1503 22.1665 21.6884 22.03 21.4778C21.8656 21.2239 21.6713 21.0157 21.4899 20.8548C21.3064 20.6921 21.0831 20.5307 20.8269 20.4005C20.598 20.2841 20.1932 20.1156 19.6843 20.1156V24.1156C19.3178 24.1156 19.0772 23.9982 19.0143 23.9662C18.9242 23.9205 18.8689 23.8768 18.8357 23.8473C18.8045 23.8197 18.7426 23.7602 18.673 23.6528C18.6314 23.5885 18.4276 23.2707 18.4276 22.7725H22.4276ZM19.6843 20.1156C19.0335 20.1156 18.5469 20.3995 18.3132 20.5613C18.031 20.7567 17.7634 21.0211 17.5557 21.3442L20.9208 23.5067C20.8246 23.6563 20.7118 23.7657 20.5907 23.8496C20.5261 23.8944 20.431 23.9513 20.3032 24.0015C20.1843 24.0481 19.9692 24.1156 19.6843 24.1156V20.1156ZM21.3047 20.781C20.7268 21.1343 20.3084 21.6432 20.0375 22.1219C19.7671 22.5995 19.5426 23.2256 19.5426 23.9127H23.5426C23.5426 24.0074 23.5273 24.0637 23.5228 24.0788C23.5176 24.0961 23.515 24.0985 23.5185 24.0923C23.522 24.0862 23.5221 24.0882 23.5118 24.0994C23.5032 24.1089 23.4666 24.1476 23.3911 24.1938L21.3047 20.781ZM19.5426 23.9127C19.5426 24.5652 19.7512 25.167 19.989 25.6141C20.208 26.0258 20.6251 26.6322 21.3173 26.9903L23.1555 23.4378C23.3489 23.5378 23.4494 23.6467 23.4772 23.6782C23.4963 23.6999 23.5075 23.7156 23.5127 23.7233C23.5181 23.7312 23.5203 23.7354 23.5206 23.7358C23.5208 23.7363 23.5208 23.7362 23.5208 23.7363C23.5208 23.7363 23.5222 23.7396 23.5243 23.7472C23.5267 23.7554 23.5426 23.8117 23.5426 23.9127H19.5426ZM21.2438 26.9504C21.3264 26.9976 21.501 27.096 21.7135 27.1736C21.9425 27.2572 22.3385 27.3635 22.8242 27.2879C23.7565 27.1428 24.2662 26.4228 24.2761 26.4108L21.1879 23.8686C21.1565 23.9066 21.2199 23.8224 21.3398 23.7228C21.4853 23.6019 21.7788 23.4024 22.2092 23.3354C22.6252 23.2707 22.9461 23.3654 23.0849 23.416C23.2072 23.4607 23.2765 23.5049 23.229 23.4777L21.2438 26.9504ZM24.3037 26.3765C25.0117 25.4768 25.5249 24.1441 25.5249 22.946H21.5249C21.5249 23.1607 21.369 23.6375 21.1602 23.9029L24.3037 26.3765ZM25.5249 22.946V22.2395H21.5249V22.946H25.5249ZM23.5249 20.2395H23.1408V24.2395H23.5249V20.2395ZM23.1408 20.2395C22.7479 20.2395 22.3891 20.3273 22.1429 20.4049C21.8799 20.4879 21.5824 20.6113 21.3047 20.781L23.3911 24.1938C23.3729 24.2049 23.3597 24.212 23.3524 24.2158C23.3449 24.2196 23.3407 24.2215 23.3397 24.2219C23.3389 24.2223 23.342 24.221 23.3458 24.2198C23.3504 24.2183 23.3431 24.221 23.3215 24.2251C23.3053 24.2281 23.2414 24.2395 23.1408 24.2395V20.2395ZM15.0193 20.6707C14.4343 21.0482 14.1913 21.5893 14.091 21.9057C13.9864 22.2356 13.9638 22.5435 13.9616 22.7626C13.9572 23.2073 14.0359 23.6578 14.131 24.0382C14.3165 24.7808 14.6811 25.71 15.2211 26.4163L18.3989 23.9871C18.3628 23.9398 18.2889 23.8221 18.2046 23.6303C18.1238 23.4466 18.0563 23.247 18.0116 23.0684C17.9627 22.8725 17.9616 22.7839 17.9614 22.8025C17.9614 22.8086 17.962 22.9317 17.9039 23.1147C17.8502 23.284 17.6773 23.7159 17.1884 24.0315L15.0193 20.6707ZM15.248 26.4508C15.3033 26.5199 15.4201 26.6651 15.5696 26.8053C15.72 26.9464 16.0355 27.2108 16.5159 27.3418C17.5635 27.6277 18.3652 27.0146 18.4029 26.9895L16.1835 23.6617C16.1836 23.6616 16.1848 23.6608 16.187 23.6594C16.1892 23.658 16.1926 23.6558 16.1972 23.6529C16.2061 23.6474 16.2213 23.6382 16.2419 23.6267C16.2797 23.6056 16.357 23.5648 16.4649 23.5254C16.7067 23.437 17.1054 23.3565 17.5687 23.4829C17.981 23.5954 18.2298 23.8163 18.3059 23.8877C18.3811 23.9582 18.4158 24.0073 18.372 23.9526L15.248 26.4508ZM18.3477 27.025C19.6849 26.1953 20.0203 24.7111 19.9284 23.6477C19.8363 22.5811 19.255 21.1991 17.8361 20.5884L16.2547 24.2625C16.0806 24.1876 15.9927 24.0757 15.9626 24.0262C15.9363 23.9829 15.9415 23.9715 15.9433 23.9918C15.9451 24.0126 15.9373 23.9953 15.9604 23.9375C15.9869 23.8713 16.0651 23.7338 16.2387 23.6262L18.3477 27.025ZM17.8624 20.5999C17.566 20.4673 17.1334 20.2958 16.6334 20.2589C16.0248 20.214 15.4852 20.3762 15.0355 20.6603L17.1721 24.0419C17.09 24.0938 16.9618 24.16 16.7932 24.2044C16.6221 24.2495 16.465 24.2573 16.3393 24.2481C16.2232 24.2395 16.1512 24.2176 16.1413 24.2146C16.1319 24.2117 16.1562 24.2187 16.2284 24.251L17.8624 20.5999ZM18.7745 23.1691C18.7745 23.8258 19.0735 24.3006 19.2847 24.5516C19.5174 24.828 19.8505 25.0849 20.2781 25.2275L21.5434 21.4329C21.8967 21.5507 22.1617 21.7581 22.3448 21.9756C22.5065 22.1677 22.7745 22.5743 22.7745 23.1691H18.7745ZM20.2781 25.2275C21.2015 25.5354 22.0619 25.1529 22.5368 24.5887C22.9448 24.1041 23.047 23.5555 23.047 23.1691H19.047C19.047 22.8942 19.1183 22.4386 19.4767 22.0128C19.6654 21.7886 19.9537 21.555 20.3512 21.4272C20.7621 21.295 21.1809 21.312 21.5434 21.4329L20.2781 25.2275ZM23.047 23.1691C23.047 22.7826 22.9448 22.2341 22.5368 21.7494C22.0619 21.1852 21.2015 20.8027 20.2781 21.1107L21.5434 24.9052C21.1809 25.0261 20.7621 25.0431 20.3512 24.911C19.9537 24.7832 19.6654 24.5496 19.4767 24.3254C19.1183 23.8996 19.047 23.444 19.047 23.1691H23.047ZM20.2781 21.1107C19.8505 21.2533 19.5174 21.5102 19.2847 21.7866C19.0735 22.0375 18.7745 22.5124 18.7745 23.1691H22.7745C22.7745 23.7638 22.5065 24.1705 22.3448 24.3626C22.1617 24.5801 21.8967 24.7874 21.5434 24.9052L20.2781 21.1107ZM16.4206 23.1691C16.4206 23.8258 16.7195 24.3006 16.9308 24.5516C17.1634 24.828 17.4965 25.0849 17.9242 25.2275L19.1895 21.4329C19.5428 21.5507 19.8078 21.7581 19.9909 21.9756C20.1526 22.1677 20.4206 22.5743 20.4206 23.1691H16.4206ZM17.9242 25.2275C18.8476 25.5354 19.708 25.1529 20.1829 24.5887C20.5909 24.1041 20.6931 23.5555 20.6931 23.1691H16.6931C16.6931 22.8942 16.7644 22.4386 17.1228 22.0128C17.3115 21.7886 17.5998 21.555 17.9973 21.4272C18.4082 21.295 18.827 21.312 19.1895 21.4329L17.9242 25.2275ZM20.6931 23.1691C20.6931 22.7826 20.5909 22.2341 20.1829 21.7494C19.708 21.1852 18.8476 20.8027 17.9242 21.1107L19.1895 24.9052C18.827 25.0261 18.4082 25.0431 17.9973 24.911C17.5998 24.7832 17.3115 24.5496 17.1228 24.3254C16.7644 23.8996 16.6931 23.444 16.6931 23.1691H20.6931ZM17.9242 21.1107C17.4965 21.2533 17.1634 21.5102 16.9308 21.7866C16.7195 22.0375 16.4206 22.5124 16.4206 23.1691H20.4206C20.4206 23.7638 20.1526 24.1705 19.9909 24.3626C19.8078 24.5801 19.5428 24.7874 19.1895 24.9052L17.9242 21.1107ZM17.5604 24.049C17.5604 24.4313 17.6635 25.0641 18.1877 25.5885C18.7946 26.1956 19.6127 26.3054 20.2587 26.1208L19.1594 22.2748C19.7186 22.1149 20.4624 22.2061 21.0167 22.7606C21.4882 23.2323 21.5604 23.7783 21.5604 24.049H17.5604ZM20.3417 26.0951C21.0965 25.8433 21.7502 25.1805 21.8771 24.2736C21.9427 23.8052 21.8675 23.1568 21.3968 22.6014C20.9079 22.0245 20.251 21.8507 19.7586 21.8507V25.8507C19.3715 25.8507 18.7889 25.711 18.3453 25.1876C17.9199 24.6856 17.861 24.1101 17.9157 23.7192C18.021 22.9671 18.5445 22.4778 19.0764 22.3005L20.3417 26.0951ZM19.7586 21.8507C18.5418 21.8507 17.5604 22.8336 17.5604 24.049H21.5604C21.5604 25.0413 20.7524 25.8507 19.7586 25.8507V21.8507ZM18.3566 23.0513C17.7619 23.3041 17.2717 23.7196 16.9322 24.1319C16.7561 24.3458 16.5752 24.6135 16.4394 24.9272C16.315 25.2149 16.1563 25.7083 16.2439 26.3002L20.2008 25.7143C20.2637 26.1389 20.1452 26.4356 20.1106 26.5156C20.0646 26.6218 20.0231 26.671 20.0204 26.6742C20.0135 26.6826 20.0121 26.6833 20.011 26.6841C20.0092 26.6855 20.0027 26.6905 19.9904 26.6979C19.9783 26.7052 19.9557 26.7179 19.9217 26.7324L18.3566 23.0513ZM16.2424 26.29C16.4372 27.6536 17.6125 28.1579 18.0359 28.3052L19.3504 24.5273C19.3561 24.5293 19.3887 24.5409 19.4392 24.5676C19.4889 24.594 19.5716 24.6433 19.6669 24.7256C19.8717 24.9024 20.1325 25.2357 20.2023 25.7245L16.2424 26.29ZM18.0605 28.3135C18.8575 28.5793 19.8023 28.5947 20.4945 28.5257C20.8591 28.4893 21.276 28.418 21.6653 28.2827C21.8576 28.2158 22.1137 28.1093 22.3693 27.936C22.6034 27.7772 23.0195 27.4389 23.2419 26.8456L19.4964 25.4416C19.6816 24.9474 20.013 24.7009 20.1238 24.6257C20.2561 24.536 20.3505 24.505 20.3518 24.5045C20.3589 24.502 20.2764 24.5276 20.0974 24.5454C19.9325 24.5619 19.75 24.5653 19.5852 24.5542C19.4073 24.5422 19.3242 24.5184 19.3258 24.519L18.0605 28.3135ZM23.2359 26.8613C23.4858 26.2114 23.381 25.6183 23.2758 25.2732C23.1634 24.9047 22.9846 24.5937 22.8119 24.3534C22.4739 23.8833 21.9722 23.4262 21.358 23.1405L19.6706 26.7671C19.5892 26.7292 19.5768 26.706 19.5641 26.6882C19.5539 26.6741 19.4967 26.5939 19.4497 26.4399C19.4099 26.3094 19.3145 25.9146 19.5024 25.4259L23.2359 26.8613ZM21.3201 23.1233C20.998 22.9815 20.4933 22.7673 19.8925 22.7391C19.2443 22.7087 18.722 22.9015 18.3816 23.0408L19.8967 26.7428C19.9423 26.7241 19.9693 26.7141 19.9838 26.7091C19.9978 26.7043 19.9922 26.7068 19.9721 26.7118C19.9508 26.717 19.9139 26.7247 19.8648 26.73C19.8147 26.7354 19.7607 26.7373 19.7052 26.7347C19.5915 26.7294 19.5203 26.7073 19.5187 26.7068C19.5187 26.7068 19.5197 26.7071 19.5217 26.7078C19.5238 26.7085 19.5269 26.7096 19.531 26.711C19.5394 26.714 19.5514 26.7185 19.5678 26.7249C19.6013 26.7381 19.6465 26.757 19.7086 26.7843L21.3201 23.1233Z" fill="#F3BB7A" mask="url(#path-9-inside-5)"/>
</svg>