<svg width="90" height="60" viewBox="0 0 90 60" fill="none" xmlns="http://www.w3.org/2000/svg">
<path d="M86 43H4" stroke="#E9EFFF" stroke-width="2" stroke-linecap="round" stroke-linejoin="round"/>
<path d="M81 24L64 27H26L20 27.5C20 27.5 30 29 31 36C49 36 50 29 50 29H63L81 24Z" fill="#ADC6FE"/>
<path d="M40.4368 20.3793L36.4652 22.6133C35.0076 23.4332 33.1825 23.1825 32 22L42.522 16.739C43.494 16.253 44.5658 16 45.6525 16H57C56.3884 17.5291 54.957 18.5745 53.3143 18.6918L43.7889 19.3722C42.6109 19.4564 41.4662 19.8003 40.4368 20.3793Z" fill="#E9EFFF"/>
<path d="M57 16H50M57 16L61.5628 20.9431C62.4618 21.9169 63.7847 22.3823 65.0954 22.1857L73 21L61.7385 16.3077C61.251 16.1046 60.7281 16 60.2 16H57ZM50 16H48.1629C42.8699 16 37.7253 17.7498 33.5299 20.977L27 26M50 16V22M27 26L17.9571 26.9043C17.3205 26.9679 16.6915 27.0926 16.0787 27.2764L7 30H10L7 33M27 26H63.6498C63.8828 26 64.1154 25.9796 64.3449 25.9391L81 23L83.2003 24.886C83.7813 25.384 83.6104 26.3235 82.8912 26.585L79.7742 27.7185C79.3094 27.8875 79 28.3292 79 28.8238C79 29.4734 79.5266 30 80.1762 30H84C85.1046 30 86 30.8954 86 32V33.8676C86 34.5701 85.6314 35.2212 85.029 35.5826L81.9501 37.43C81.3284 37.803 80.617 38 79.8921 38H77C77 38 77 30 69 30C61 30 61 39 61 39H27C27 39 27 30 19 30C11 30 11 39 11 39H7.07037C6.40167 39 5.7772 38.6658 5.40627 38.1094L4.9095 37.3642C4.38066 36.571 4.48526 35.5148 5.15938 34.8406L7 33M7 33H5" stroke="#3955FE" stroke-width="2" stroke-linecap="round" stroke-linejoin="round"/>
<rect x="-1" y="1" width="10" height="10" rx="5" transform="matrix(-1 0 0 1 73 32)" stroke="#262425" stroke-width="2"/>
<mask id="path-6-inside-1" fill="white">
<path d="M71 38H67C67 39.1046 67.8954 40 69 40C70.1046 40 71 39.1046 71 38Z"/>
</mask>
<path d="M71 38V36H73V38H71ZM67 38H65V36H67V38ZM69 38H73C73 40.2091 71.2091 42 69 42V38ZM69 38V42C66.7909 42 65 40.2091 65 38H69ZM71 40H67V36H71V40Z" fill="#ADC6FE" mask="url(#path-6-inside-1)"/>
<mask id="path-8-inside-2" fill="white">
<path d="M21 38H17C17 39.1046 17.8954 40 19 40C20.1046 40 21 39.1046 21 38Z"/>
</mask>
<path d="M21 38V36H23V38H21ZM17 38H15V36H17V38ZM19 38H23C23 40.2091 21.2091 42 19 42V38ZM19 38V42C16.7909 42 15 40.2091 15 38H19ZM21 40H17V36H21V40Z" fill="#ADC6FE" mask="url(#path-8-inside-2)"/>
<rect x="-1" y="1" width="10" height="10" rx="5" transform="matrix(-1 0 0 1 23 32)" stroke="#262425" stroke-width="2"/>
</svg>
