<svg viewBox="0 0 48 48" fill="none" xmlns="http://www.w3.org/2000/svg">
<path fill-rule="evenodd" clip-rule="evenodd" d="M37.8691 6.92136C34.0843 3.8439 29.2589 2 24 2C11.8497 2 2 11.8497 2 24C2 36.1503 11.8497 46 24 46C36.1503 46 46 36.1503 46 24C46 18.5172 43.9956 13.505 40.6783 9.6525C40.318 9.23399 40.3651 8.60258 40.7836 8.24221C41.2021 7.88185 41.8335 7.92898 42.1939 8.3475C45.8119 12.5492 48 18.0203 48 24C48 37.2548 37.2548 48 24 48C10.7452 48 0 37.2548 0 24C0 10.7452 10.7452 0 24 0C29.735 0 35.0025 2.0128 39.1309 5.3696C39.5594 5.71802 39.6243 6.34785 39.2759 6.77636C38.9275 7.20486 38.2976 7.26978 37.8691 6.92136ZM24 6C26.5557 6 28.9356 6.7819 30.6937 8.27848C32.4675 9.78853 33.5536 11.9833 33.5536 14.6621V20.3848C33.5536 22.5389 32.8529 24.6029 31.5623 26.2896V30.1161C34.0925 30.3949 36.4499 31.5097 38.2994 33.3199C39.1134 34.1165 39.2312 35.3883 38.5837 36.3225L38.5836 36.3227C36.8149 38.8736 33.8559 40.272 31.0944 41.0415C28.3103 41.8172 25.5612 42 24 42C22.4382 42 19.9624 41.8431 17.4166 41.2026C16.881 41.0678 16.556 40.5244 16.6908 39.9888C16.8256 39.4532 17.369 39.1283 17.9046 39.263C20.2467 39.8523 22.5499 40 24 40C25.4388 40 27.9973 39.8282 30.5576 39.1149C33.1402 38.3953 35.5621 37.1702 36.94 35.1833C37.0343 35.0472 37.0148 34.8612 36.9005 34.7494L36.9005 34.7493C35.1743 33.0597 32.9246 32.1088 30.5376 32.0499L29.5623 32.0259V31.0502V28.1465C29.4896 28.1978 29.4149 28.2493 29.3381 28.3008C28.0925 29.1361 26.2597 30 24 30C21.7403 30 19.9075 29.1361 18.6619 28.3008C18.5851 28.2493 18.5104 28.1978 18.4377 28.1465V31.0502V32.0259L17.4624 32.0499C15.0754 32.1088 12.8257 33.0597 11.0995 34.7493L11.0995 34.7494C10.9851 34.8612 10.9659 35.0472 11.0599 35.1828L11.0599 35.1829C11.8892 36.3788 13.0739 37.3006 14.4544 38.0047C14.9464 38.2557 15.1418 38.8579 14.8908 39.3499C14.6399 39.8419 14.0376 40.0373 13.5456 39.7864C11.9566 38.9759 10.4818 37.8591 9.41639 36.3225C8.76862 35.3883 8.88668 34.1164 9.70062 33.3199C11.5501 31.5097 13.9075 30.3949 16.4377 30.1161V26.2896C15.1471 24.6029 14.4464 22.5389 14.4464 20.3848V14.6621C14.4464 11.9833 15.5325 9.78853 17.3063 8.27848C19.0644 6.7819 21.4443 6 24 6ZM29.7822 25.3138L29.7959 25.2982C30.9318 23.9226 31.5536 22.1983 31.5536 20.3848V14.6621C31.5536 12.5647 30.7211 10.9283 29.3972 9.8014C28.0576 8.66101 26.1607 8 24 8C21.8393 8 19.9424 8.66101 18.6027 9.8014C17.2789 10.9283 16.4464 12.5647 16.4464 14.6621V20.3848C16.4464 22.1983 17.0682 23.9226 18.2041 25.2981L18.2178 25.3138C18.2318 25.3297 18.2551 25.3558 18.2876 25.3907C18.3526 25.4605 18.4536 25.565 18.5884 25.6927C18.8588 25.9489 19.2606 26.2942 19.7758 26.6397C20.8113 27.3341 22.2597 28 24 28C25.7403 28 27.1887 27.3341 28.2242 26.6397C28.7394 26.2942 29.1412 25.9489 29.4116 25.6927C29.5464 25.565 29.6474 25.4605 29.7124 25.3907C29.7449 25.3558 29.7682 25.3297 29.7822 25.3138Z" fill="url(#paint0_linear)"/>
<defs>
<linearGradient id="paint0_linear" x1="24" y1="0" x2="24" y2="48" gradientUnits="userSpaceOnUse">
<stop stop-color="#18CED6"/>
<stop offset="1" stop-color="#18AED6"/>
</linearGradient>
</defs>
</svg>
