<svg viewBox="0 0 64 64" fill="none" xmlns="http://www.w3.org/2000/svg">
<path fill-rule="evenodd" clip-rule="evenodd" d="M56.8321 24.5547C56.5257 25.0143 55.9049 25.1384 55.4453 24.8321L52.4453 22.8321C51.9858 22.5257 51.8616 21.9049 52.168 21.4453C52.4743 20.9858 53.0952 20.8616 53.5547 21.168L56.5547 23.168C57.0143 23.4743 57.1384 24.0952 56.8321 24.5547ZM59.4472 18.8945C59.1657 19.0352 58.8343 19.0352 58.5528 18.8945L56.5528 17.8945C56.3593 17.7977 56.2024 17.6408 56.1056 17.4472L55.1056 15.4472C54.9648 15.1657 54.9648 14.8343 55.1056 14.5528L56.1056 12.5528C56.2024 12.3593 56.3593 12.2024 56.5528 12.1056L58.5528 11.1056C58.8343 10.9648 59.1657 10.9648 59.4472 11.1056L61.4472 12.1056C61.6408 12.2024 61.7977 12.3593 61.8945 12.5528L62.8945 14.5528C63.0352 14.8343 63.0352 15.1657 62.8945 15.4472L61.8945 17.4472C61.7977 17.6408 61.6408 17.7977 61.4472 17.8945L59.4472 18.8945ZM60.2547 16.2547L60.882 15L60.2547 13.7454L59 13.1181L57.7454 13.7454L57.1181 15L57.7454 16.2547L59 16.882L60.2547 16.2547ZM57.5145 7.85752C57.0409 8.14167 56.4267 7.9881 56.1425 7.51452L55.157 5.87202L53.5145 6.85752C53.0409 7.14167 52.4267 6.9881 52.1425 6.51452C51.8584 6.04095 52.012 5.42668 52.4855 5.14254L54.128 4.15703L53.1425 2.51452C52.8584 2.04095 53.012 1.42668 53.4855 1.14254C53.9591 0.858387 54.5734 1.01195 54.8575 1.48553L55.843 3.12804L57.4855 2.14254C57.9591 1.85839 58.5734 2.01195 58.8575 2.48553C59.1417 2.95911 58.9881 3.57337 58.5145 3.85752L56.872 4.84303L57.8575 6.48553C58.1417 6.95911 57.9881 7.57337 57.5145 7.85752ZM8.55471 1.16798C8.09518 0.861632 7.47431 0.985806 7.16796 1.44534C6.86161 1.90486 6.98578 2.52573 7.44531 2.83209L10.4453 4.83209C10.9048 5.13844 11.5257 5.01426 11.8321 4.55474C12.1384 4.09521 12.0142 3.47434 11.5547 3.16798L8.55471 1.16798ZM5.70711 7.29293C5.31659 6.9024 4.68343 6.9024 4.2929 7.29293L1.2929 10.2929C0.902377 10.6835 0.902377 11.3166 1.2929 11.7071L4.2929 14.7071C4.68343 15.0977 5.31659 15.0977 5.70711 14.7071L8.70711 11.7071C9.09764 11.3166 9.09764 10.6835 8.70711 10.2929L5.70711 7.29293ZM5.00001 12.5858L3.41422 11L5.00001 9.41425L6.58579 11L5.00001 12.5858ZM7.8575 18.4855C7.57335 18.012 6.95909 17.8584 6.48551 18.1425C6.01193 18.4267 5.85837 19.041 6.14252 19.5145L7.12802 21.157L5.48551 22.1425C5.01193 22.4267 4.85837 23.041 5.14252 23.5145C5.42666 23.9881 6.04092 24.1417 6.5145 23.8575L8.15701 22.872L9.14252 24.5145C9.42666 24.9881 10.0409 25.1417 10.5145 24.8575C10.9881 24.5734 11.1416 23.9591 10.8575 23.4855L9.872 21.843L11.5145 20.8575C11.9881 20.5734 12.1416 19.9591 11.8575 19.4855C11.5734 19.012 10.9591 18.8584 10.4855 19.1425L8.84301 20.128L7.8575 18.4855ZM30.2609 32.6736C30.4439 32.8744 30.7007 32.9921 30.9723 32.9996C31.2438 33.0072 31.5068 32.9039 31.7006 32.7136L50.7006 14.059C51.0527 13.7133 51.1 13.1624 50.812 12.7617L44.812 4.41628C44.6241 4.15495 44.3219 4.00003 44 4.00003L32 4.00003H20C19.6782 4.00003 19.376 4.15495 19.1881 4.41628L13.1881 12.7617C12.9122 13.1454 12.9426 13.6698 13.2609 14.0191L30.2609 32.6736ZM44 6.7131L39.9506 12.3455H48.0494L44 6.7131ZM33.9506 6.00003H42.0494L38 11.6324L33.9506 6.00003ZM32 6.71311L36.0494 12.3455H27.9506L32 6.71311ZM30.0494 6.00003L26 11.6324L21.9506 6.00003H30.0494ZM15.9506 12.3455L20 6.71311L24.0494 12.3455H15.9506ZM16.2643 14.3455H25.2328L28.9696 28.2874L16.2643 14.3455ZM47.5541 14.3455L33.5238 28.1207L38.6929 14.3455H47.5541ZM31.1589 28.7302L36.5567 14.3455H27.3034L31.1589 28.7302ZM2.0333 33.0006C2.03303 33.0006 2.0328 33.0006 2.00002 34L2.0328 33.0006C1.76204 32.9917 1.49927 33.093 1.3046 33.2814C1.10993 33.4698 1.00002 33.7291 1.00002 34V53.0001C1.00002 53.5524 1.44773 54.0001 2.00002 54.0001C2.5523 54.0001 3.00002 53.5524 3.00002 53.0001V35.0679C3.10719 35.0772 3.22123 35.0876 3.34142 35.0993C4.19218 35.1825 5.34077 35.3304 6.54326 35.5886C7.75188 35.8481 8.97838 36.2113 10.0026 36.711C11.041 37.2176 11.7634 37.8119 12.1192 38.4737C12.6413 39.4449 12.8187 39.7932 12.9075 40.1483C12.9963 40.5034 13.0037 40.8942 13 41.9968L13 42.0001C13 47.0366 12.1643 49.8857 11.216 53.1189L11.2149 53.1228C11.1569 53.3202 11.0986 53.5192 11.04 53.7201C10.7278 54.7907 9.87767 56.4967 9.20002 57.4002C8.95053 57.7329 8.51251 57.9675 7.82073 58.0643C7.12943 58.1609 6.30419 58.1001 5.47131 57.9528C4.64797 57.8071 3.87045 57.5866 3.29423 57.4002C3.00764 57.3075 2.77443 57.2244 2.61453 57.1651C2.53466 57.1355 2.47331 57.1119 2.43297 57.0961L2.38862 57.0787L2.3789 57.0747L2.37781 57.0743L2.37746 57.0742L2.37738 57.0741L2.37726 57.0741C1.86603 56.8658 1.2827 57.1112 1.07413 57.6224C0.865481 58.1338 1.11088 58.7175 1.62223 58.9261L2.00002 58.0002C1.62223 58.9261 1.62246 58.9262 1.62272 58.9263L1.62334 58.9265L1.62501 58.9272L1.63003 58.9293L1.64668 58.9359L1.70557 58.9592C1.75588 58.9788 1.82795 59.0065 1.91924 59.0403C2.10165 59.108 2.36164 59.2006 2.6786 59.3031C3.30949 59.5072 4.1805 59.7554 5.12284 59.9222C6.05564 60.0872 7.11325 60.1826 8.09769 60.045C9.08164 59.9074 10.1123 59.5172 10.8 58.6002C11.3199 57.907 11.894 56.8838 12.3418 55.8963C13.5627 57.1363 14.9163 58.0762 16.5528 58.8945C19.7776 60.5069 24.7336 61 29.25 61C33.7983 61 38.1362 60.4967 40.2425 59.9702C41.3677 59.689 43.3966 58.8065 45.6898 57.6081C48.0114 56.3948 50.6917 54.8112 53.1411 53.0735C55.5762 51.346 57.8456 49.4227 59.289 47.5194C60.6925 45.6687 61.5743 43.4628 60.3517 41.476C59.3194 39.7986 57.8345 39.2888 56.4915 39.3147C55.2214 39.3392 54.0946 39.8347 53.5528 40.1057L53.5512 40.1065L41.2208 46.2999C41.1418 45.3373 40.7708 44.136 39.6247 43.2192C38.3029 42.1618 35.725 40.4907 32.5814 39.1434C29.444 37.7988 25.6507 36.7368 21.9287 37.0027C18.3307 37.2598 16.235 38.0396 14.9551 39.0183C14.8692 39.084 14.7873 39.1505 14.7093 39.2175C14.5336 38.7405 14.2699 38.2502 13.9229 37.605L13.8808 37.5267C13.2408 36.3362 12.0903 35.5042 10.8795 34.9135C9.65453 34.3159 8.2555 33.9106 6.96308 33.6331C5.66452 33.3543 4.43653 33.1969 3.53598 33.1088C3.08458 33.0647 2.71274 33.0378 2.45208 33.0218C2.32169 33.0139 2.21895 33.0086 2.14779 33.0053C2.11221 33.0037 2.08451 33.0025 2.06518 33.0018L2.04253 33.0009L2.03603 33.0007L2.034 33.0006L2.0333 33.0006ZM17.4472 57.1056C15.6852 56.2246 14.3378 55.2158 13.1084 53.7733L13.1377 53.6732C14.0838 50.4488 14.9743 47.4138 14.9995 42.2266C15.0133 42.1963 15.027 42.1661 15.0406 42.136C15.0468 42.1224 15.0529 42.1089 15.059 42.0954C15.2814 41.6022 15.4987 41.1203 16.1699 40.6071C17.0151 39.9608 18.6693 39.2407 22.0713 38.9977C25.3493 38.7634 28.806 39.7014 31.7936 40.9817C34.775 42.2594 37.1971 43.8384 38.3753 44.7809C39.0136 45.2915 39.2113 45.9707 39.2358 46.6014C39.2481 46.9175 39.2146 47.202 39.1774 47.4075C39.1589 47.5091 39.1402 47.5882 39.1272 47.6383C39.1242 47.6497 39.1215 47.6596 39.1193 47.6679C39.1181 47.6721 39.1171 47.6759 39.1161 47.6792C38.8707 48.3214 38.4617 48.9199 37.9754 49.3492C37.4796 49.787 36.9636 50.0001 36.5 50.0001C35.8791 50.0001 34.9472 49.8389 33.8363 49.5612C32.7455 49.2885 31.5533 48.9221 30.4413 48.5514C29.3312 48.1813 28.312 47.8108 27.5699 47.5325C27.1991 47.3934 26.8982 47.2777 26.6906 47.1969C26.5868 47.1566 26.5063 47.125 26.4522 47.1036L26.391 47.0793L26.3758 47.0733L26.3723 47.0719L26.3715 47.0716L26.3714 47.0716L26.3714 47.0715C25.8586 46.8665 25.2767 47.1159 25.0715 47.6286C24.8664 48.1414 25.1158 48.7234 25.6286 48.9285L26 48C25.6286 48.9285 25.6287 48.9285 25.6288 48.9286L25.6292 48.9287L25.6305 48.9293L25.6351 48.9311L25.6523 48.9379L25.7178 48.9639C25.775 48.9864 25.8586 49.0193 25.9657 49.0609C26.1799 49.1443 26.4884 49.2629 26.8676 49.4051C27.6255 49.6893 28.6688 50.0687 29.8088 50.4487C30.9467 50.8281 32.192 51.2116 33.3512 51.5015C34.4903 51.7862 35.6209 52.0001 36.5 52.0001C37.5806 52.0001 38.5483 51.5114 39.2992 50.8484C39.9514 50.2725 40.4856 49.528 40.8459 48.7263L54.4473 41.8945L54.448 41.8941C54.9063 41.665 55.7102 41.3302 56.5301 41.3143C57.2777 41.2999 58.0428 41.5402 58.6484 42.5242C59.1757 43.3811 58.9951 44.5971 57.6954 46.3109C56.4356 47.9721 54.3613 49.7558 51.9839 51.4423C49.6208 53.1188 47.0199 54.6563 44.7634 55.8355C42.4785 57.0297 40.6323 57.8112 39.7575 58.0299C37.8638 58.5033 33.7017 59 29.25 59C24.7665 59 20.2225 58.4932 17.4472 57.1056Z" fill="url(#paint0_linear)"/>
<defs>
<linearGradient id="paint0_linear" x1="31.9999" y1="0.999878" x2="31.9999" y2="61" gradientUnits="userSpaceOnUse">
<stop stop-color="#18CED6"/>
<stop offset="1" stop-color="#18AED6"/>
</linearGradient>
</defs>
</svg>
